<svg width="2500" height="2500" viewBox="0 0 2500 2500" fill="none" xmlns="http://www.w3.org/2000/svg">
<g clip-path="url(#clip0)">
<path d="M1638.73 2485.4L237.804 2057.36C60.7459 2003.2 -39.0846 1815.78 15.0688 1638.26L442.645 237.804C496.798 60.7459 684.215 -39.0846 861.744 15.0688L2262.67 442.645C2439.73 496.798 2539.56 684.215 2485.4 861.744L2057.36 2262.67C2003.2 2439.73 1815.78 2539.56 1638.73 2485.4Z" fill="#757575"/>
<path d="M1250.24 2318.23C1840.07 2318.23 2318.23 1840.07 2318.23 1250.24C2318.23 660.397 1840.07 182.238 1250.24 182.238C660.397 182.238 182.238 660.397 182.238 1250.24C182.238 1840.07 660.397 2318.23 1250.24 2318.23Z" fill="#757575" stroke="black" stroke-width="117.725" stroke-miterlimit="10"/>
<path d="M1250.24 1383.97C1324.1 1383.97 1383.97 1324.1 1383.97 1250.24C1383.97 1176.38 1324.1 1116.5 1250.24 1116.5C1176.38 1116.5 1116.5 1176.38 1116.5 1250.24C1116.5 1324.1 1176.38 1383.97 1250.24 1383.97Z" fill="black"/>
<path d="M859.035 1019.48C697.786 980.93 598.591 819.211 636.67 658.432C675.22 497.183 836.939 397.989 997.718 436.067C1158.97 474.617 1258.16 636.337 1220.08 797.116C1182 957.893 1020.29 1057.56 859.035 1019.48ZM1703.36 1220.08L1703.26 1220.47L1703.36 1220.08C1542.11 1181.53 1442.91 1019.81 1480.99 859.035C1519.54 697.785 1681.26 598.591 1842.04 636.67C2003.29 675.22 2102.48 836.939 2064.4 997.718C2025.85 1158.97 1864.13 1258.63 1703.36 1220.08ZM657.961 1863.33C496.712 1824.78 397.518 1663.06 435.596 1502.28C474.146 1341.03 635.866 1241.84 796.645 1279.92C957.894 1318.47 1057.09 1480.19 1019.01 1640.97C980.929 1802.22 819.21 1901.88 657.961 1863.33ZM1502.28 2064.4C1341.03 2025.85 1241.84 1864.13 1279.92 1703.36C1318.47 1542.11 1480.19 1442.91 1640.96 1480.99C1802.21 1519.54 1901.41 1681.26 1863.33 1842.04C1825.25 2003.29 1663.53 2102.95 1502.28 2064.4Z" fill="black" stroke="black"/>
</g>
<defs>
<clipPath id="clip0">
<rect width="2500" height="2500" fill="white"/>
</clipPath>
</defs>
</svg>
