<svg id="Layer_1" data-name="Layer 1" xmlns="http://www.w3.org/2000/svg" viewBox="0 0 825.86 847.56"><defs><style>.cls-1{fill:#fff;}</style></defs><title>1</title><path class="cls-1" d="M683.44,592.16c0,142.59-114.54,258.31-257.52,258.23s-257.79-114.28-257.52-258c.27-142.5,113.87-256.6,257-256.95C569,335.05,682.5,450.4,683.44,592.16ZM413.64,435.41c-12.4,2.49-23.46,4.23-34.26,7-16.81,4.32-32,12.49-44,24.89-15.41,15.89-22.72,35.39-22.84,57.87-.13,26.22,10.69,46.21,31.67,61.27,19.32,13.86,41.5,20.47,64.36,25.12,4.39.89,5.18,2.54,5.16,6.41-.15,22.31-.1,44.62-.12,66.92,0,5.35,0,10.69,0,16.65-11.9-.37-22.17-2.41-31.52-8-11-6.5-15.32-17.64-19.22-28.82-4.7-13.48-11.36-23.78-27.61-24.88C318,638.69,304.9,650.4,306,667.71c1.42,21.7,12.34,38.44,28.71,51.71C356,736.63,381.15,743.57,408,745.34c4.23.28,5.53,1.49,5.57,5.82a202.09,202.09,0,0,0,1.69,25.43c.74,5.39,4.8,9,10.3,9.67a10.42,10.42,0,0,0,11.28-6.46,36,36,0,0,0,2.9-11.5c.42-6.17,0-12.41-.14-18.61-.07-3,.73-4.41,4.12-4.91,12.21-1.79,24.63-3,36.46-6.32,16.93-4.7,32.65-12.43,44.64-25.9,23.37-26.26,25.54-56.79,15.93-88.73-7.25-24.09-25.78-38.3-48.21-47.11-13.95-5.48-28.66-9.09-43.17-13-9.62-2.62-9.74-2.23-9.74-12.58q0-32.87,0-65.75c0-1.62.32-3.24.54-5.24,4.88.79,9.12,1.15,13.2,2.19,13.18,3.35,22.66,11.86,31.23,22,5.92,7,12.05,14.43,19.58,19.42,13.55,9,34.64-2.07,36.3-18.18,1.3-12.6-2.15-23.83-11-33-17.21-17.91-39.42-26.23-62.8-31.94-8.72-2.13-17.72-3.15-26.74-4.7,0-3.85.37-7.93-.09-11.92-.71-6.24-.72-13-3.3-18.47-4.08-8.65-15.69-8.09-19.92.53a32.48,32.48,0,0,0-2.84,11.68C413.3,423.84,413.64,430,413.64,435.41Z" transform="translate(-12.27 -2.83)"/><path class="cls-1" d="M12.27,208.39c1.94-44.59,14.88-84.87,41.11-121.05,19.2-26.48,43.43-46.78,72.14-61.86A193.27,193.27,0,0,1,195,4.1a222,222,0,0,1,53.88.8C285.17,9.82,317.34,24.1,346,46.25c31.26,24.15,53.43,55.25,67.16,92.28,2.75,7.41,4.83,15.08,6.83,22.73a8.18,8.18,0,0,1-1.19,5.9c-20,29.59-33.17,62-40.19,97A118.6,118.6,0,0,0,376.31,282c-.21,4.51-1.68,6.32-6.27,7.14-48.37,8.6-91.89,28.41-131.11,57.76a295.24,295.24,0,0,0-59.33,59.5c-2.16,2.88-4,3.5-7.75,2.6-40.71-9.85-75.1-30.2-103.61-60.86a198.79,198.79,0,0,1-51.18-103C14.93,233,13.83,220.63,12.27,208.39ZM193,271.56c0,12.38-.17,24,0,35.56.27,14.62,9.22,23.76,23.83,24.77,15.12,1.05,25.2-5.29,28.65-18.81,1.17-4.6.8-9.62.87-14.45.12-8.84,0-17.68,0-26.7,2-.14,3.12-.28,4.25-.28q18-.09,36.09-.14c8.69,0,15.07-5.7,15.16-13.51s-5.46-13-14.36-13.24c-6.79-.19-13.58-.18-20.37-.21s-13.47,0-20.48,0c0-3.46-.43-6.39.08-9.16,1.23-6.63,5.6-10.29,12.21-10.44,8.92-.2,17.85.07,26.75-.41,3.9-.21,8.29-.89,11.46-2.92,4.92-3.14,5.53-8.61,4.05-14.08s-5.49-8.52-10.91-9.07c-6.85-.7-13.77-.76-21.13-1.12a24.05,24.05,0,0,1,1.18-2.73c7.46-12.47,15-24.91,22.42-37.4,7.54-12.64,15.33-25.14,22.4-38a20.39,20.39,0,0,0-.77-21.59c-9.21-14-37.51-19.45-48.5,2-14.06,27.4-28.52,54.6-42.82,81.88-1,1.88-2.09,3.71-3.37,6a19,19,0,0,1-1.83-2.17c-14.21-27.31-28.31-54.67-42.66-81.91-6.87-13-14.76-20.25-31.67-17.29-16,2.8-28.56,17.07-19,34.47,10.63,19.33,22.65,37.9,34,56.84,3.88,6.48,7.57,13.08,11.45,19.78-8.06.54-15.23.69-22.31,1.59-6.59.84-10.82,6.5-10.68,13.16s4.58,11.92,11.4,12.29c9.67.52,19.41.95,29,.24,8.23-.6,12,3.74,14.71,10.13,2.93,6.83.71,10.16-6.47,10.17-12,0-24.06.06-36.09.09-5.49,0-9.24,2.76-11.24,7.68-4.2,10.32,3,19.3,15,19.14C166.37,271.43,179.3,271.56,193,271.56Z" transform="translate(-12.27 -2.83)"/><path class="cls-1" d="M559.81,295.29c-5.69,1.58-12.38,1.48-15.56,4.77-5.25,5.42-9.29,3.51-14.63,1.64a320,320,0,0,0-96.08-18.13c-1.68-.05-3.35-.29-5.31-.46,6.07-38.77,20.81-73.13,45.7-102.92,23.21-27.8,51.67-48.36,85.64-61.16,31.2-11.75,63.27-15.44,96.43-11.7a201.18,201.18,0,0,1,94.42,36c39.81,28,66.39,65.78,79.94,112.33,7.45,25.62,9.38,51.91,6.51,78.73a200.53,200.53,0,0,1-23.59,75.32c-20.6,37.82-50.26,66.6-88.9,86-2.77,1.39-4.54,1.21-5.44-1.63-6.37-20.22-15.82-39-26.34-57.32a8.37,8.37,0,0,1-.29-2c2.31-.37,4.63-.88,7-1.1,18.75-1.77,30-16.77,26.18-35-2-9.75-12.07-15.88-22.24-13.76-15.34,3.19-30.7,4.13-45.94-.47a18.05,18.05,0,0,1-6.86-3.79q-12.79-11.82-25.13-24.13a7.6,7.6,0,0,1-1.86-5.47c.71-6.83,1.9-13.61,3-21.2,5.77,0,12.53.21,19.26-.07A79.09,79.09,0,0,0,661.24,328a14.26,14.26,0,0,0,11.09-15.51c-.74-8.18-5.86-14.4-13.7-14.85-13.13-.76-26.31-.91-39.46-.85-4.19,0-6.28-1.12-7.62-5.14-2.14-6.4-5.74-12.39-7.27-18.89-5.42-23,9-41.61,33.65-43.32,17.8-1.24,31.45,3.73,39.65,22.61.93,2.13,2.23,4.1,3.08,6.26,3.3,8.44,9.79,12.61,18.47,12.47,10.06-.17,19.64-2.82,23.78-13.28,4.43-11.2,1.91-22.14-4.08-32.16-11.18-18.68-28.88-27.84-49.24-33-22.52-5.75-44.92-5.58-67.08,1.46-28.43,9-51.74,33.85-51.86,66.81A66.58,66.58,0,0,0,559.81,295.29Z" transform="translate(-12.27 -2.83)"/><path class="cls-1" d="M440.06,701.78c16.78-2.17,32.47-5.61,43.71-19.13,9.62-11.58,10.87-30.46,2.36-41.58-11.37-14.86-28.06-19.44-46.07-22.87Zm-27-145.91V481.06c-16.8.63-28.39,5-37.41,14a31.36,31.36,0,0,0,.68,45.09C386.56,549.63,399.38,553,413.11,555.88Z" transform="translate(-12.27 -2.83)"/><path class="cls-1" d="M440.06,701.78V618.2c18,3.43,34.7,8,46.07,22.87,8.51,11.12,7.27,30-2.36,41.58C472.54,696.17,456.85,699.61,440.06,701.78Z" transform="translate(-12.27 -2.83)"/><path class="cls-1" d="M413.11,555.88c-13.73-2.92-26.55-6.24-36.73-15.71a31.36,31.36,0,0,1-.68-45.09c9-9,20.61-13.37,37.41-14Z" transform="translate(-12.27 -2.83)"/></svg>