<svg id="Layer_1" data-name="Layer 1" xmlns="http://www.w3.org/2000/svg" viewBox="0 0 850.39 712.16"><defs><style>.cls-1{fill:#fff;}</style></defs><title>10</title><path class="cls-1" d="M0,640.91c0-45.8-.14-91.6.13-137.39,0-8,1.73-16,2.78-24,.71-5.43,4.18-8.88,9.33-9.42,16.21-1.69,32.45-3.39,48.73-4.1,10.5-.46,21.08,1.2,31.63,1.22,76,.12,152.09.36,228.14-.13a124.88,124.88,0,0,1,56.33,12.71c35.63,17.21,71.47,34,107.15,51.1,7.27,3.49,14.28,7.56,21.25,11.64a77.13,77.13,0,0,1,33.91,40c1.49,3.87,3.09,7.69,4.72,11.5,4.65,10.89,9.6,14.07,21.33,11.29,11.25-2.67,22.22-6.59,33.18-10.37,30.15-10.4,60.07-21.53,90.38-31.43,61.06-20,118,4,149.21,58.55A120,120,0,0,1,849.66,650c2.42,8.93-1.23,16.28-10.15,21-24,12.62-47.85,25.63-71.69,38.6Q649,774.1,530.32,838.75c-3.82,2.08-7.72,4-11.61,6-13.27,6.62-26.67,7.46-40.89,2.51q-109.15-38-218.5-75.47c-13.31-4.58-26.82-8.6-40.26-12.81a32.84,32.84,0,0,0-6.09-1.19c-13.24-1.5-17.92,2.46-18.88,15.64-.57,7.83-1.09,15.68-2,23.47-1.3,10.59-7.43,16.94-18.08,18.19a218.06,218.06,0,0,1-22.8,1.5c-24.38.29-48.77.19-73.15.45-21.89.23-43.88,3-65.39-3.85-5.41-1.73-8.63-5-9.52-10.27C1.85,795.33.22,787.74.18,780.17-.09,733.75,0,687.33,0,640.91Zm194.56-33.3h0c0,12.64-.19,25.29.05,37.93.27,14.28.88,28.56,1.43,42.83.28,7.28,4.19,12,11,14.27,11,3.74,22,7.25,33,11q114.87,39.68,229.69,79.52c17.42,6.07,33.47,5.63,50.11-3.55,54.79-30.24,110-59.77,165.09-89.45,31.38-16.9,62.92-33.52,94.32-50.37,10.1-5.42,11.6-12.93,4.52-21.92a35.34,35.34,0,0,0-6.75-6.36c-19.5-14.42-41.28-19.61-64.67-13.1-25.53,7.1-51,14.76-75.87,23.77-43.83,15.87-87.17,33.11-130.83,49.47-26.3,9.85-52.3,10.42-78.34-2.24-27.76-13.5-56.13-25.74-84.17-38.67-12.41-5.73-24.72-11.7-37-17.76A19.67,19.67,0,0,1,294.9,606.9c-.61-5.53-1.3-11.45.08-16.67,1-3.72,4.77-8.25,8.28-9.39,5.7-1.85,12.53-2.64,18.29-1.32a161.94,161.94,0,0,1,31,10.4c31.27,14.32,62.2,29.4,93.33,44,10.12,4.76,20.77,6,31.43,2.08,8.18-3,14.48-8.92,16.67-17.2,4.22-16-.48-26.44-14.42-35.38a90.34,90.34,0,0,0-9.75-5.47c-38.88-18.6-77.7-37.36-116.8-55.49a55.89,55.89,0,0,0-22.2-5c-37.93-.46-75.88-.91-113.78.17-20.38.58-21.94,2.58-22.34,22.75C194.25,562.83,194.6,585.23,194.6,607.61Zm-50.49,35.45h.41c0-32.54.14-65.08-.11-97.61-.05-7.19-1.28-14.4-2.39-21.54-.24-1.52-2.12-3.73-3.54-4-26.31-4.7-52.79-2.7-79.25-1.83-.2,0-.4.13-.6.16-5.32.7-8,4-8.55,9.07-.82,8-2,16.06-2.07,24.1q-.34,79.58-.2,159.17c0,12.43-.27,24.91.76,37.27C50,765.21,52,766.8,69.45,767.3c14.5.41,29,.4,43.52.06,8-.19,16-1.54,24.08-2.12,3.65-.26,5-1.93,5.24-5.43.46-7,1.7-14,1.75-21C144.22,706.89,144.11,675,144.11,643.06Z" transform="translate(0 -138.23)"/><path class="cls-1" d="M577.18,498.81c-58.79-3.5-105.2-47-105.88-106.69-.6-51.83,41.82-108.35,106-108.61,54.37-.22,108.1,44.33,107.9,108.06S632.84,497,577.18,498.81ZM635.24,389.5c1.57-27.44-23.51-55.42-57.93-55.41-28.56,0-55.87,21-56,58.4-.12,31.85,24.77,56.61,56,56.34C609.34,448.56,635,426.61,635.24,389.5Z" transform="translate(0 -138.23)"/><path class="cls-1" d="M382.59,138.23c55.65,0,108.11,51.18,107.79,106.17-.4,69.26-61.61,110-106.74,109.16C321.51,352.44,275.11,302.63,275,244.4,274.9,192.21,320.45,139.32,382.59,138.23Zm59,106.85c1.68-27.27-24.17-58.6-59.93-58-32.27.52-58.08,27.5-58.19,58.7-.14,38,32.79,61.07,59.82,60.56C412.69,305.76,441.68,279.43,441.56,245.09Z" transform="translate(0 -138.23)"/></svg>