<svg id="Layer_1" data-name="Layer 1" xmlns="http://www.w3.org/2000/svg" viewBox="0 0 848.49 839.24"><defs><style>.cls-1{fill:#fff;}</style></defs><title>7</title><path class="cls-1" d="M2,708.54c0-36.48.23-73-.06-109.43-.39-49.4,22.54-84.92,63.81-110.25,26.79-16.44,56.51-22.81,87-27.16,7.23-1,14.52-1.61,21.77-2.49,3.61-.44,5.62-1.69,6.51-6.14,1.79-8.94,2.45-17.59-.4-26.31a8.82,8.82,0,0,0-2.65-4.28C154,405,140.57,381.26,135.77,352.41c-2.66-16-5.05-32.06-7.06-48.16C123.65,263.79,131.79,227,162.16,198c20.88-19.94,46-31.86,75.49-32.14,17.28-.17,34.8-.78,51.8,1.66,29.62,4.26,53,20.41,71.6,43.56,20.92,26,25.05,56.11,21.55,88.09-1.79,16.35-2.91,32.81-5.51,49-4.46,27.86-16,52.23-38.25,70.62-9,7.43-12.27,28.53-4.8,37.38,2.36,2.79,7.82,3.81,12,4.09,26.12,1.73,51.6,6.88,75.8,16.56,39.33,15.74,69.74,41.37,82.76,83.24C508,571,509.15,583,509.22,594.43c.42,67.24.28,134.49.15,201.74,0,13-.27,26.09-1.54,39s-.85,13-15.16,14.88a19.14,19.14,0,0,1-3.66,0c-12.87-.79-16-3.68-17.06-16.43-.44-5.27-.41-10.59-.41-15.88,0-73.56-.26-147.13.11-220.69.13-25.63-10.79-46.19-28.56-62.74-19.12-17.81-42.69-28.12-68.64-32.47-12.37-2.07-24.66-4.88-37.11-6-8.14-.75-16.59.38-24.74,1.7-3.9.63-5.61,4.63-4.49,8.83,1.72,6.43,3.88,12.75,5.39,19.22,2.92,12.5-.72,23.5-9.37,32.5-3.37,3.51-3.52,7.37-3,10.93,4.23,28.45,9,56.82,13.35,85.24,2.66,17.22,5,34.49,7.48,51.75,2.41,17-2.11,31.86-12.68,45.61-10.71,13.92-19.95,29-30.14,43.29-11.81,16.61-33.9,16.19-45.36-.67-11.71-17.25-23.3-34.58-35-51.81-7.77-11.4-8.39-24.16-6.5-37,4.73-32.29,10.11-64.49,15-96.76,2-13.22,3.4-26.54,5.11-39.81.6-4.65-.41-8.68-4.08-11.86-13.5-11.7-11.73-26.13-7.28-41,.69-2.31,1.74-4.51,2.37-6.83,1.72-6.29-1.17-10.6-7.73-12-14.18-3.09-28.27-1.82-42.22,1.21-13.23,2.88-26.56,5.62-39.4,9.8-18.25,5.95-35.23,15.09-48.57,29-16.94,17.66-26.48,39.26-26.56,64-.25,73.16,0,146.31-.17,219.47,0,7.09-1,14.18-1.72,21.25-.41,4.26-3,6.46-7.17,7-2.22.3-4.41.89-6.63,1.06-15.57,1.21-20.89-3-21-18.5-.31-41-.1-81.92-.1-122.88Zm343.8-428.06c-1.91-13-3.86-26.14-11.42-38.45-12-19.53-28.57-33.12-50.28-38-22.29-5-45.46-6.55-67.08,4.47-10.75,5.48-22.44,10-30,20-7.08,9.34-14.76,18.22-18.09,30.23-2.48,9-4.3,17.74-3.36,26.8,1.86,17.94,4.75,35.77,6.51,53.72,2.07,21.15,12.49,38,27.71,51.42,10.22,9,22.15,16.06,36.5,18.84,13,2.51,25.21,3.67,38.14,0,17.56-5,33.53-11.75,45.25-26.82,9.38-12.06,16.82-25.28,19.43-39.91C342.7,322.45,343.63,301.67,345.77,280.48ZM256.24,758.22A42.2,42.2,0,0,0,259,755c5.77-8.79,11.22-17.79,17.32-26.35,5.81-8.16,7.87-16.06,5.41-26.44C278.45,688.45,278,674.08,276,660c-1.44-10.43-3.41-20.78-5-31.18-2.36-15.29-4.62-30.6-6.84-45.34-7.81-1.73-12.4,1.09-14.57,6.53a72.43,72.43,0,0,0-4.14,16.81c-3.74,26.88-7.18,53.81-10.76,80.71-2,15-8.29,29.95,4.73,44C246.28,738.86,250.42,748.73,256.24,758.22Zm34.52-311.85c-23.16,4.24-46.18,5-69.77-1.19,0,6.67-.31,11.75.18,16.76a6.41,6.41,0,0,0,3.76,4.45c17.4,4.92,34.6,7.86,52.86,2.22,14.85-4.58,15.23-3.36,13.88-19.13A25.41,25.41,0,0,0,290.76,446.37ZM245,511.48c-2.32,6.25-7.14,12.72-5.67,17.06,1.62,4.79,8.57,8.62,14,11.05,7.26,3.25,12.47-4,16.47-7.59,6.4-5.79-1.22-13.11-1.44-20.52Z" transform="translate(-1.9 -11.15)"/><path class="cls-1" d="M850.39,296.69c-2,14.38-4.59,31-6.69,47.71-3.42,27.12-13,52.3-24.88,76.54-11.2,22.83-26.07,43.34-43.35,62a304.87,304.87,0,0,1-82.76,63.26c-30.08,15.8-62.39,25-95.66,30.64-11.65,2-23.86.76-35.81.67-4.77,0-7.21-3.22-7.79-7.86-.13-1-.39-2-.54-3-2.29-16,2.17-21.47,18.05-22.88,28.28-2.5,55.4-10,81.27-21.25,16.6-7.23,33.11-15.39,48.07-25.5a249,249,0,0,0,58.9-55.62,255.51,255.51,0,0,0,37.66-68.26c6.49-18,9.52-36.68,12.61-55.5,3.71-22.63.25-44.51-3.74-66.44a219.94,219.94,0,0,0-31.66-80.08c-12-18.77-25.68-36.3-42-51.72-16.6-15.72-35.22-28.5-55.12-39.53-30.09-16.67-62.48-26.73-96.41-31.17a256.76,256.76,0,0,0-102,7.25c-34.15,9.35-66,23.54-93.63,45.6-15.46,12.34-29.19,26.94-43.07,41.13-8.62,8.81-19.1,11.42-28.19,5.21-8.22-5.62-10.7-18.28-4.41-27.18a151.41,151.41,0,0,1,16.62-19.31c30.91-30.94,66.51-55,107.5-70.38,26.66-10,54.33-15.6,82.84-18.45,30.51-3,60.64-1,90.56,3.47,21.74,3.24,42.75,10.16,63.4,18.44,24.56,9.84,46.87,23.17,67.7,38.95,38.53,29.18,67.19,66.24,87.33,110.35C841.32,219.05,846.08,256.4,850.39,296.69Z" transform="translate(-1.9 -11.15)"/><path class="cls-1" d="M786,295.56c-1.47,52.23-16.7,99.58-50.88,140-30.92,36.55-68.91,62.52-115.4,75-13.64,3.67-27.77,5.59-41.7,8.16a22.2,22.2,0,0,1-7.91.23c-5.61-1-13.79-.84-16.11-4.33-4.88-7.37-3.86-16.91-.41-25.31.75-1.83,4.1-3.14,6.48-3.65,13.65-3,27.49-5.11,41-8.44,23.61-5.81,45.06-16.73,64.88-30.53C698.73,423.89,722,393.5,736,356c8.72-23.28,13.95-47.35,11.49-72-2.65-26.67-9.51-52.59-23.64-75.83-6.59-10.83-13.26-21.92-21.72-31.23A256.64,256.64,0,0,0,668.25,146c-24.27-18.57-52-30.2-81.94-36-39.81-7.67-78.45-3.73-116.07,12.18-25,10.55-47.37,24.43-66.53,43.54-4,4-7.69,8.38-11.81,12.28-7,6.68-19.68,7.8-27.91,2.75-8.54-5.24-9.5-18.44-2-27.47a207.49,207.49,0,0,1,45.5-40.76c16.22-10.77,33.17-20.19,51.44-27.1,19.87-7.53,40.69-10.63,61.57-13.85,33.74-5.2,66.4.21,98.78,8.77,39.74,10.5,73.49,31.29,102.52,60.25,26.84,26.78,45.77,58.24,55.38,94.81C782.26,255,787.6,274.78,786,295.56Z" transform="translate(-1.9 -11.15)"/><path class="cls-1" d="M528.35,206.71c.79-3.33,1.31-6.33,2.23-9.2,1.51-4.72,2-10.16,8.17-11.8,8.3-2.2,16.74-3.22,24.21,1.54,2.82,1.79,4.58,6.19,5.55,9.74,2,7.12,5.79,11.93,12.64,14.94,10,4.39,17.39,12,23,21.13,4.66,7.62,7.26,17.06,2.51,24.39-4.19,6.48-13.52,4.89-21,4.33a19.19,19.19,0,0,1-14.83-8.35c-10.19-14-27.5-14.49-41.08-6.1-7.76,4.8-7.72,19.05-.3,24.74,8.21,6.29,17.85,6.67,27.51,7,11.07.39,21.87,1.37,31.41,8,24.83,17.36,30.56,55.64,10.67,78.22-6.14,7-14.61,12.24-22.79,16.93-4.55,2.61-6.89,5.58-8.21,10.18-3.26,11.33-4.6,12.35-16.46,12.88-1.63.07-3.26.07-4.89,0-11.71-.45-12.4-1-16.41-12.3a18.15,18.15,0,0,0-8.89-10.4,136.31,136.31,0,0,1-24.68-17.39c-7.77-7-10.18-16.87-9.09-27.39.44-4.29,2.46-6.91,6.8-8.26,14.14-4.42,23.12-1.32,32.27,10.42,7,9,17.35,8.28,27.34,7.68a39.16,39.16,0,0,0,6.53-1.26c7.2-1.7,11.18-6.78,11.26-14.31s-4.62-15-11.38-16.09c-10.57-1.67-21.27-2.48-31.91-3.69-19.39-2.21-42.39-20.52-42.27-46.38,0-2.85-.13-5.7-.1-8.55.27-24,10.48-38.6,33-47.29C522.15,209,525.18,207.89,528.35,206.71Z" transform="translate(-1.9 -11.15)"/><path class="cls-1" d="M416.57,741.72c0,27.5.1,55-.08,82.5a75.24,75.24,0,0,1-2,17.51c-.63,2.55-3.83,4.57-6.1,6.56-.81.71-2.31.69-3.5.93-17.15,3.48-23.11-.44-25.52-17.38a122.65,122.65,0,0,1-.74-17.07q-.08-77,0-154a104.8,104.8,0,0,1,2-20c.46-2.31,3.58-4.2,5.72-6,.83-.7,2.31-.77,3.51-.88,24.34-2.34,26.1.44,26.5,21,.57,28.92.14,57.85.14,86.78Z" transform="translate(-1.9 -11.15)"/><path class="cls-1" d="M131.83,730.51c0,26.49,0,53,0,79.47,0,8.32,1,16.71.3,25-1.06,12.48-4.55,15.1-17.21,15.25h-1.22c-13.59-.25-16.36-2.58-18-15.94a120,120,0,0,1-.7-14.64q-.07-78.55.07-157.1a111.58,111.58,0,0,1,2.31-21.78c.49-2.42,3.91-4.39,6.27-6.21,1-.78,2.72-.83,4.13-.89,23.77-1,23.47-.45,23.88,19.85.51,25.66.12,51.35.12,77Z" transform="translate(-1.9 -11.15)"/></svg>