<svg id="Layer_1" data-name="Layer 1" xmlns="http://www.w3.org/2000/svg" viewBox="0 0 850.39 567.49"><defs><style>.cls-1{fill:#fff;}</style></defs><title>9</title><path class="cls-1" d="M424.37,698.39q-195.06,0-390.12-.1c-7.5,0-15-1.38-22.5-2.16-4.43-.46-7.28-3.07-8-7.29-1.4-8.63-3.05-17.3-3.39-26-.6-15.51-.32-31.05-.37-46.58a54,54,0,0,1,.36-6.12c1.89-17,4.95-19.87,22.17-21,7.74-.52,15.48-1,23.2-1.59,4.63-.37,7.62-2.87,8.2-7.6C55,571,56.76,562.11,56.79,553.2q.36-106.12.14-212.24c0-56.23-.25-112.46-.11-168.68,0-9.76,1.33-19.53,2.23-29.28.54-5.86,3.8-9.38,9.81-9.88,9.55-.78,19.11-2.08,28.67-2.08q278.18-.19,556.35-.1c34.55,0,69.11-.2,103.66.18,8.49.09,17,2.06,25.43,3.24a9.1,9.1,0,0,1,8.19,8c1.55,9,3.77,18.1,3.85,27.17.4,46,.26,92,.22,138-.07,85.47-.4,170.93-.18,256.4.06,23.2.61,23,23.67,25.15,4.88.46,9.81.57,14.65,1.32,10.82,1.67,13.76,4.22,15.18,15.17a225,225,0,0,1,1.84,29.34c0,13.07-.68,26.16-1.53,39.21-1.24,19-5.14,22.79-23.94,23.87-6.93.4-13.9.32-20.85.32q-189.85,0-379.69,0Zm2.87-42v.25h36.19q159.48.11,319,.17a137.57,137.57,0,0,0,18.93-1.41c7-1,8.7-3.91,8.52-13-.17-8-1.88-10.67-9-11.17-12.63-.88-25.31-1.51-38-1.52q-118.08,0-236.17.23c-5.72,0-11.46-.07-17.17-.41-20.83-1.24-24.46-5.39-23.13-26.1.5-7.7,4.05-12.37,11.75-13.35A217.71,217.71,0,0,1,525,588.25c66-.2,132.09-.16,198.14-.34,7.12,0,14.24-1,21.37-1.56,4.8-.35,7.5-2.74,7.84-7.65.53-7.53,1.58-15.06,1.6-22.59.13-47.44,0-94.88,0-142.31q0-103.36.06-206.71c0-7.95-1-15.89-1.46-23.84-.25-4.87-2.65-7.62-7.46-8.06-10.16-.91-20.33-2.44-30.5-2.44-74.62,0-149.24.38-223.85.41q-182.49.05-365-.14c-5.91,0-11.82.79-17.73,1.18s-9.35,3.35-9.72,9.53c-.35,5.91-1.21,11.82-1.22,17.73q-.24,179.12-.26,358.24c0,6.52.88,13,1.43,19.55.4,4.73,2.84,7.51,7.8,7.75,8.16.39,16.32,1.15,24.48,1.16,66.66.09,133.32,0,200,.12a133.53,133.53,0,0,1,20.73,1.61c7.94,1.27,12.83,8.85,12.77,18.42-.07,11.2-4.26,18.57-12.59,19.7a215.31,215.31,0,0,1-28.69,1.83c-83.42.1-166.85,0-250.27.06-7.74,0-15.48,1.11-23.22,1.62-4,.27-5.74,2.34-5.93,6.28-.9,18.09-.95,15.94,14.12,17.9a118.93,118.93,0,0,0,15.29,1c18.81,0,37.61-.3,56.42-.3Q278.18,656.3,427.24,656.34Z" transform="translate(0 -130.9)"/><path class="cls-1" d="M601.37,321.43c-3.35-1.27-5.81-2.59-8.43-3.11-7.21-1.44-14.49-2.51-21.73-3.79-4.38-.77-7-3.4-7.18-7.89-.24-7.31-.26-14.64-.25-22,0-4.66,2.39-7,7.13-7.4,5.5-.41,11-1.61,16.45-1.66,21.87-.23,43.75-.16,65.62-.15a85,85,0,0,1,8.57.52c12.74,1.3,16.54,4.36,16.74,17.18.43,26.77.43,53.56-.38,80.31-.48,15.79-7.14,20.39-22.83,18.4-12.87-1.63-16-4.89-17.33-17.81-.57-5.48-1.27-11-2.14-16.4-.3-1.87-1.29-3.63-2.33-6.45-3.25,2.67-5.86,4.52-8.11,6.72-14.75,14.44-29.4,29-44.16,43.44-4.09,4-8.71,7.47-12.65,11.6-6.81,7.14-15.26,9-24.58,8.55-9.58-.43-19.15-1.05-28.73-1.14-2.05,0-4.6,1.44-6.11,3-10.21,10.58-20.1,21.47-30.29,32.07-7.36,7.65-14.58,15.56-22.78,22.22-3.54,2.88-9.36,3.77-14.22,4-8.13.41-16.34-.25-24.49-.77-7.41-.47-12.2,2.69-15.77,9.12-6.45,11.61-13.94,22.67-20,34.48-4.66,9.13-11.73,12.35-21.2,12.38-26.16.09-52.32.24-78.48.28-27.8,0-55.59.1-83.39-.12a163.8,163.8,0,0,1-25-1.86c-2.94-.48-6.91-3.65-7.72-6.38a52.76,52.76,0,0,1-2.28-18.53c.66-8.93,4.75-13,13.75-13.3,23.48-.88,47-1.25,70.48-1.42,28.42-.21,56.84-.35,85.25.17,12.5.23,20.34-6.08,26.31-15.64,6.39-10.22,12.21-20.8,18.12-31.32,5.54-9.86,13.52-15,25.11-13.87,6.71.67,13.44,1.1,20.14,1.82,11.79,1.27,22.2-.79,30.4-10.44,5.28-6.21,11.42-11.7,17.1-17.57,8.33-8.61,16.83-17.08,24.81-26,6.18-6.91,13.24-9.47,22.39-7.86a126,126,0,0,0,19.52,1.6c6.68.12,12.77-1.63,17.76-6.75,13.85-14.19,27.93-28.14,41.88-42.23C597.9,326,599.17,324.12,601.37,321.43Z" transform="translate(0 -130.9)"/><path class="cls-1" d="M558.05,214.15c.13-2.65.13-5.31.41-7.94.65-6.06,4.15-10,10.08-10.61a121.29,121.29,0,0,1,21.3-.79c9.88.67,13.45,4.63,14.68,14.63a44.62,44.62,0,0,1,.08,7.94c-.62,11-4.13,15.16-15,16.29a78.75,78.75,0,0,1-18.26-.29c-10.12-1.33-12.79-4.75-13.17-14.94-.05-1.43,0-2.86,0-4.28Z" transform="translate(0 -130.9)"/><path class="cls-1" d="M714.17,234.4c-20.21.08-24.54-4.46-23.55-24.62.51-10.34,3.08-13.81,13.16-14.92,7-.77,14.18-.19,21.27.08,4.95.19,8.06,2.9,8.22,8.05.22,7.09.75,14.24.09,21.26-.71,7.6-3.63,9.71-11.24,10.12C719.48,234.52,716.83,234.4,714.17,234.4Z" transform="translate(0 -130.9)"/><path class="cls-1" d="M645.3,235c-17.07-.53-20.75-4.28-20.78-21.62,0-13.88,5.05-19.52,18.81-19.68,26.68-.3,27.51,8.22,24.54,31.19-.37,2.87-4.48,6.32-7.62,7.53C655.63,234.17,650.32,234.18,645.3,235Z" transform="translate(0 -130.9)"/></svg>