<svg id="Layer_1" data-name="Layer 1" xmlns="http://www.w3.org/2000/svg" viewBox="0 0 654.21 850.39"><defs><style>.cls-1{fill:#fff;}</style></defs><title>8</title><path class="cls-1" d="M416.82,849.53c-7.77-5.09-14.81-9.66-21.79-14.3-20.42-13.57-40.79-27.21-61.25-40.71-5.69-3.75-11.67-3.72-17.41.08q-40,26.53-79.94,53.12c-1.16.77-2.42,1.4-4.64,2.68-.27-2.71-.62-4.62-.62-6.54q0-37.76.09-75.53c0-8.73-3.19-12-12-12-21,0-42-.09-63,0A57.54,57.54,0,0,1,98.4,698.89q.42-321.14.12-642.29c0-25,17.2-47.79,43.21-54.17A88,88,0,0,1,162.46.13Q428.68-.05,694.89.19c25.48,0,46.44,14.35,54.9,37.58a43.22,43.22,0,0,1,2.71,14.44q.2,326.14.07,652.27c0,22.87-18.46,44.46-42.9,50.08a69.84,69.84,0,0,1-15.37,1.69q-83.33.18-166.66.07a26.58,26.58,0,0,1-26.73-23.7c-1.2-11.09,9.39-24.66,20.65-26a195.38,195.38,0,0,1,22.25-1.58c48.69-.14,97.37-.07,146.06-.06,9.69,0,12.55-2.92,12.55-12.62q0-314,0-627.93c0-9.62-2.82-12.44-12.67-12.44H162.33c-10.23,0-13,2.78-13,12.8q0,313.34,0,626.68c0,11,2.47,13.51,13.56,13.5q28.4,0,56.8,0c8.31,0,11.54-3.38,11.51-11.82q-.08-25-.12-49.93c0-1.55.31-3.1.67-6.49,3.32,4.3,5.55,7.31,7.91,10.22,14.09,17.44,31.68,28.75,54.67,28.83,9.17,0,18.32-2.89,27.53-3.3,6-.27,12.06,1.43,18,2.5,19.56,3.49,37.81.11,53.57-12,8.38-6.44,15.36-14.69,23.28-22.43Z" transform="translate(-98.4)"/><path class="cls-1" d="M425.28,219.15h-166c-13.59,0-25.2-9.63-26.36-22.54-1.14-12.73,4.76-24.81,20.33-27.39a79.83,79.83,0,0,1,12.88-1.49q161.34-.13,322.68.11c6,0,12.06,2.38,17.94,4.17,7.91,2.41,13.3,16.18,12.25,24.63-1.25,10.06-8.29,18.58-18,20.7a67.35,67.35,0,0,1-14.07,1.73Q506.11,219.25,425.28,219.15Z" transform="translate(-98.4)"/><path class="cls-1" d="M351.22,627.63c-3.84-1.76-8.74-3.39-13-6.08-11.25-7.17-16.2-7.4-26.85.65-12.61,9.53-31.84,4.05-35.8-13.86-2.17-9.85-8-15-17.74-15.65-13.08-.94-22.95-8.83-24.65-21.44-.64-4.71,1.44-10.18,3.46-14.78,4.89-11.14,4.75-15.67-4.54-23.53-16.14-13.67-8.25-36.16,8.46-40.73,9.43-2.57,13-10.27,10.9-20.7-1.83-9.08,2.36-19.27,10.3-23.75,6.09-3.43,12.36-5,19.62-2.24,12,4.6,18.36,2,23.6-8.2,8.18-16,33.08-15.43,40.36.82,4.13,9.21,11.71,12.21,21.17,8.13,16.65-7.18,31.48,5,32.7,19.63.36,4.25-.22,8.6-.56,12.89-.54,6.73,3.21,11.22,8.87,12.61,10.91,2.68,17.52,9.89,19,19.84.87,5.87-3.09,12.65-5.61,18.72-1,2.47-4,4.09-6.1,6.15-5,5-6.1,12.84-2.13,18.6,11.2,16.26.6,34.32-15.48,36.42-3.26.43-6.48,1.12-9.74,1.63-6.32,1-10.82,5.83-12.47,13.82-1.8,8.7-6,15.44-14.67,18.64C357.87,626.14,355.23,626.59,351.22,627.63ZM324.9,590.71C354.29,594.19,390.64,562,387,524c-2.45-25.43-28.55-58.83-66.76-56.34-24.13,1.57-60.5,27.49-56.95,68.53C265.3,559.51,293.77,594.28,324.9,590.71Z" transform="translate(-98.4)"/><path class="cls-1" d="M377,302.46q57.69,0,115.38,0c13.14,0,24.6,9.76,25.8,22.39,1.22,12.86-5,25-20.22,27.48a83.73,83.73,0,0,1-13.5,1.5q-111.64.14-223.28.06c-16.76,0-28.39-10.58-28.38-25.73s11.38-25.68,27.56-25.69Q318.65,302.42,377,302.46Z" transform="translate(-98.4)"/></svg>