<?xml version="1.0" encoding="utf-8"?>
<!-- Generator: Adobe Illustrator 24.2.3, SVG Export Plug-In . SVG Version: 6.00 Build 0)  -->
<svg version="1.1" id="Layer_1" xmlns="http://www.w3.org/2000/svg" xmlns:xlink="http://www.w3.org/1999/xlink" x="0px" y="0px"
	 viewBox="0 0 1223.4 334" style="enable-background:new 0 0 1223.4 334;" xml:space="preserve">
<style type="text/css">
	.st0{fill:#070606;}
	.st1{fill:url(#SVGID_1_);}
	.st2{fill:url(#SVGID_2_);}
	.st3{fill:url(#SVGID_3_);}
	.st4{fill:url(#SVGID_4_);}
	.st5{fill:url(#SVGID_5_);}
	.st6{fill:url(#SVGID_6_);}
	.st7{fill:url(#SVGID_7_);}
	.st8{fill:url(#SVGID_8_);}
	.st9{fill:url(#SVGID_9_);}
	.st10{fill:url(#SVGID_10_);}
	.st11{fill:url(#SVGID_11_);}
	.st12{fill:url(#SVGID_12_);}
	.st13{fill:url(#SVGID_13_);}
	.st14{fill:url(#SVGID_14_);}
	.st15{fill:#070607;}
	.st16{fill:url(#SVGID_15_);}
	.st17{fill:url(#SVGID_16_);}
	.st18{fill:url(#SVGID_17_);}
	.st19{fill:url(#SVGID_18_);}
	.st20{fill:url(#SVGID_19_);}
	.st21{fill:#F01010;}
	.st22{fill:#FFFFFF;}
	.st23{enable-background:new    ;}
</style>
<path class="st0" d="M1115.7,302.6H499.5c-43.7,0-79.2-35.5-79.2-79.2V112.2c0-43.7,35.4-79.2,79.2-79.2l0,0h616.2
	c43.7,0,79.2,35.5,79.2,79.2l0,0v111.2C1194.9,267.1,1159.4,302.6,1115.7,302.6z"/>
<linearGradient id="SVGID_1_" gradientUnits="userSpaceOnUse" x1="420.3" y1="-0.2" x2="1194.9" y2="-0.2" gradientTransform="matrix(1 0 0 1 0 168)">
	<stop  offset="0" style="stop-color:#DF9A2B"/>
	<stop  offset="0.25" style="stop-color:#E9B946"/>
	<stop  offset="0.53" style="stop-color:#F5FB76"/>
	<stop  offset="0.84" style="stop-color:#9E660C"/>
	<stop  offset="1" style="stop-color:#55280B"/>
</linearGradient>
<path class="st1" d="M1115.7,43c38.2,0,69.2,31,69.2,69.2v111.2c0,38.2-31,69.2-69.2,69.2H499.5c-38.2,0-69.2-31-69.2-69.2V112.2
	c0-38.2,31-69.2,69.2-69.2H1115.7 M1115.7,33H499.5c-43.7,0-79.2,35.5-79.2,79.2v111.2c0,43.7,35.5,79.2,79.2,79.2h616.2
	c43.7,0,79.2-35.5,79.2-79.2l0,0V112.2C1194.9,68.5,1159.4,33,1115.7,33L1115.7,33z"/>
<path d="M761.4,203.5h-32.6v-56.6h32.6v9.8h-20.6v12.4H760v9.9h-19.2v14.6h20.6V203.5z"/>
<linearGradient id="SVGID_2_" gradientUnits="userSpaceOnUse" x1="745.1" y1="-21.1" x2="745.1" y2="35.5" gradientTransform="matrix(1 0 0 1 0 168)">
	<stop  offset="0" style="stop-color:#DF9A2B"/>
	<stop  offset="0.25" style="stop-color:#E9B946"/>
	<stop  offset="0.53" style="stop-color:#F5FB76"/>
	<stop  offset="0.84" style="stop-color:#9E660C"/>
	<stop  offset="1" style="stop-color:#55280B"/>
</linearGradient>
<path class="st2" d="M759.4,148.9v5.8h-20.6v16.4H758v5.9h-19.2v18.6h20.6v5.9h-28.6v-52.6H759.4 M761.4,146.9h-32.6v56.6h32.6v-9.9
	h-20.6V179H760v-9.8h-19.2v-12.5h20.6V146.9L761.4,146.9z"/>
<path d="M819,203.5h-13.7l-13.2-21.4l-13.2,21.4H766l18.8-29.2l-17.5-27.4h13.2l12.2,20.4l12-20.4h12.9L799.8,175L819,203.5z"/>
<linearGradient id="SVGID_3_" gradientUnits="userSpaceOnUse" x1="792.6" y1="-21.2" x2="792.6" y2="35.4" gradientTransform="matrix(1 0 0 1 0 168)">
	<stop  offset="0" style="stop-color:#DF9A2B"/>
	<stop  offset="0.25" style="stop-color:#E9B946"/>
	<stop  offset="0.53" style="stop-color:#F5FB76"/>
	<stop  offset="0.84" style="stop-color:#9E660C"/>
	<stop  offset="1" style="stop-color:#55280B"/>
</linearGradient>
<path class="st3" d="M814,148.9l-15.8,25l-0.7,1.1l0.7,1.1l17,25.4h-8.9L793.8,181l-1.7-2.8l-1.7,2.8l-12.6,20.5h-8.1l16.8-26.1
	l0.7-1.1l-0.7-1.1l-15.6-24.3h8.5l11.6,19.4l1.7,2.9l1.7-2.9l11.4-19.4L814,148.9 M817.6,146.8h-12.9l-12,20.4l-12.2-20.4h-13.2
	l17.6,27.4l-18.8,29.2H779l13.2-21.4l13.2,21.4h13.7L800,174.9L817.6,146.8L817.6,146.8z"/>
<path d="M850.1,156c-4.1-0.2-8.1,1.7-10.5,5.1c-2.5,3.4-3.7,8.1-3.7,14.2c0,12.6,4.7,18.9,14.2,18.9c4,0,8.8-1,14.4-3v10.1
	c-4.9,2-10.2,3-15.6,2.9c-8.2,0-14.5-2.5-18.9-7.5c-4.4-5-6.5-12.2-6.5-21.5c-0.1-5.3,1-10.6,3.2-15.5c2-4.2,5.2-7.8,9.2-10.2
	c4.3-2.4,9.2-3.7,14.1-3.5c5.8,0.1,11.4,1.4,16.6,4l-3.9,9.8c-2.1-1-4.2-1.9-6.4-2.6C854.4,156.4,852.3,156,850.1,156z"/>
<linearGradient id="SVGID_4_" gradientUnits="userSpaceOnUse" x1="845.2968" y1="-21.9058" x2="845.2968" y2="36.3068" gradientTransform="matrix(1 0 0 1 0 168)">
	<stop  offset="0" style="stop-color:#DF9A2B"/>
	<stop  offset="0.25" style="stop-color:#E9B946"/>
	<stop  offset="0.53" style="stop-color:#F5FB76"/>
	<stop  offset="0.84" style="stop-color:#9E660C"/>
	<stop  offset="1" style="stop-color:#55280B"/>
</linearGradient>
<path class="st4" d="M850.1,148.1c4.8,0,9.6,1.1,14,3l-2.4,6c-1.5-0.7-3.1-1.3-4.7-1.8c-2.2-0.8-4.6-1.2-7-1.2
	c-4.8-0.2-9.3,2.1-12.1,6c-2.7,3.7-4.1,8.9-4.1,15.4c0,17.3,8.8,20.9,16.2,20.9c4.2-0.1,8.4-0.9,12.4-2.3v6
	c-4.4,1.6-8.9,2.3-13.6,2.3c-7.7,0-13.4-2.2-17.4-6.8s-6-11.4-6-20.2c-0.1-5,0.9-10,3-14.6c1.8-3.9,4.8-7.1,8.5-9.3
	C841.1,149.1,845.6,148,850.1,148.1 M850.2,146.1c-4.9-0.1-9.8,1.1-14.1,3.5c-4,2.4-7.2,5.9-9.2,10.2c-2.2,4.8-3.3,10.1-3.2,15.5
	c0,9.3,2.2,16.5,6.5,21.5c4.4,5,10.7,7.5,18.9,7.5c5.3,0.1,10.6-0.9,15.6-2.9v-10.1c-5.6,2-10.5,3-14.4,3c-9.5,0-14.2-6.3-14.2-18.9
	c0-6.1,1.2-10.8,3.7-14.2c2.4-3.4,6.3-5.3,10.5-5.1c2.2,0,4.3,0.4,6.3,1.1c2.2,0.8,4.3,1.6,6.4,2.6l3.9-9.8
	C861.6,147.4,855.9,146.1,850.2,146.1L850.2,146.1z"/>
<path d="M923,203.5h-12V179h-22.4v24.4h-12v-56.6h12V169H911v-22.2h12V203.5z"/>
<linearGradient id="SVGID_5_" gradientUnits="userSpaceOnUse" x1="899.9" y1="-21.1" x2="899.9" y2="35.5" gradientTransform="matrix(1 0 0 1 0 168)">
	<stop  offset="0" style="stop-color:#DF9A2B"/>
	<stop  offset="0.25" style="stop-color:#E9B946"/>
	<stop  offset="0.53" style="stop-color:#F5FB76"/>
	<stop  offset="0.84" style="stop-color:#9E660C"/>
	<stop  offset="1" style="stop-color:#55280B"/>
</linearGradient>
<path class="st5" d="M921,148.9v52.6h-8V177h-26.4v24.4h-8v-52.6h8V171H913v-22.2L921,148.9 M923.1,146.9h-12v22.2h-22.4v-22.2h-12
	v56.6h12V179h22.4v24.4h12V146.9z"/>
<path d="M972,203.5l-4.1-13.5h-20.6l-4.1,13.5h-12.9l20-56.8H965l20.1,56.8H972z M965,179.9c-3.8-12.2-5.9-19.1-6.4-20.7
	c-0.5-1.6-0.8-2.9-1-3.8c-0.9,3.3-3.3,11.5-7.3,24.5H965z"/>
<linearGradient id="SVGID_6_" gradientUnits="userSpaceOnUse" x1="957.5001" y1="-21.4" x2="957.5001" y2="35.4" gradientTransform="matrix(1 0 0 1 0 168)">
	<stop  offset="0" style="stop-color:#DF9A2B"/>
	<stop  offset="0.25" style="stop-color:#E9B946"/>
	<stop  offset="0.53" style="stop-color:#F5FB76"/>
	<stop  offset="0.84" style="stop-color:#9E660C"/>
	<stop  offset="1" style="stop-color:#55280B"/>
</linearGradient>
<path class="st6" d="M963.4,148.6l18.7,52.8h-8.6l-3.7-12.1l-0.5-1.3h-23.6l-0.4,1.4l-3.7,12.1H933l18.6-52.8h5.7l-1.6,6.3
	c-0.8,3.3-3.3,11.5-7.3,24.4l-0.8,2.6h20.2l-0.8-2.6c-3.8-12.3-5.9-19.1-6.4-20.7s-0.8-2.8-1-3.7l-1.4-6.4H963.4 M964.8,146.6h-14.6
	l-20,56.8h12.9l4.1-13.5h20.6l4.1,13.5h12.9L964.8,146.6L964.8,146.6z M950.2,179.9c4-13,6.4-21.2,7.3-24.5c0.2,0.9,0.5,2.2,1,3.8
	s2.6,8.5,6.4,20.7H950.2z"/>
<path d="M1042.2,203.5h-15.3l-24.6-42.9h-0.3c0.5,7.6,0.7,13,0.7,16.2v26.6H992v-56.6h15.1l24.6,42.4h0.3
	c-0.4-7.3-0.6-12.5-0.6-15.6v-26.8h10.8V203.5L1042.2,203.5z"/>
<linearGradient id="SVGID_7_" gradientUnits="userSpaceOnUse" x1="1017.1" y1="-21.1" x2="1017.1" y2="35.5" gradientTransform="matrix(1 0 0 1 0 168)">
	<stop  offset="0" style="stop-color:#DF9A2B"/>
	<stop  offset="0.25" style="stop-color:#E9B946"/>
	<stop  offset="0.53" style="stop-color:#F5FB76"/>
	<stop  offset="0.84" style="stop-color:#9E660C"/>
	<stop  offset="1" style="stop-color:#55280B"/>
</linearGradient>
<path class="st7" d="M1040.2,148.9v52.6h-12.1l-24-41.8l-0.6-1h-3.6l0.1,2.1c0.5,7.5,0.7,12.9,0.7,16.1v24.6H994v-52.6h12l24,41.4
	l0.6,1h3.5l-0.1-2.1c-0.4-7.3-0.6-12.5-0.6-15.5v-24.8L1040.2,148.9 M1042.2,146.9h-10.8v26.8c0,3.1,0.2,8.3,0.6,15.6h-0.3
	l-24.6-42.4H992v56.6h10.7v-26.6c0-3.2-0.2-8.6-0.7-16.2h0.3l24.6,42.8h15.3V146.9L1042.2,146.9z"/>
<path d="M1078,171.7h22.5V201c-3.4,1.1-6.8,2-10.3,2.5c-3.3,0.5-6.6,0.7-9.8,0.7c-8.5,0-15.1-2.5-19.6-7.5s-6.8-12.2-6.8-21.6
	c0-9.1,2.6-16.3,7.8-21.4c5.2-5.1,12.5-7.7,21.7-7.7c5.8,0,11.5,1.2,16.8,3.5l-4,9.6c-4-2-8.4-3.1-12.9-3.1c-5.2,0-9.3,1.7-12.5,5.2
	c-3.1,3.5-4.7,8.2-4.7,14.1c0,6.1,1.3,10.8,3.8,14.1c2.5,3.2,6.2,4.9,11,4.9c2.6,0,5.1-0.3,7.6-0.8v-11.8h-10.7L1078,171.7
	L1078,171.7z"/>
<linearGradient id="SVGID_8_" gradientUnits="userSpaceOnUse" x1="1077.25" y1="-21.97" x2="1077.25" y2="36.2358" gradientTransform="matrix(1 0 0 1 0 168)">
	<stop  offset="0" style="stop-color:#DF9A2B"/>
	<stop  offset="0.25" style="stop-color:#E9B946"/>
	<stop  offset="0.53" style="stop-color:#F5FB76"/>
	<stop  offset="0.84" style="stop-color:#9E660C"/>
	<stop  offset="1" style="stop-color:#55280B"/>
</linearGradient>
<path class="st8" d="M1083.5,148.1c4.8,0,9.6,0.9,14.2,2.6l-2.4,5.8c-3.7-1.6-7.8-2.4-11.8-2.4c-5.8,0-10.5,2-14,5.9
	s-5.2,9-5.2,15.4c0,6.6,1.4,11.7,4.2,15.3c2.9,3.7,7.1,5.6,12.6,5.6c2.7,0,5.4-0.3,8-0.8l1.6-0.3v-15.4H1080v-6h18.5v25.9
	c-2.8,0.9-5.7,1.6-8.6,2c-3.2,0.5-6.4,0.7-9.6,0.7c-8,0-13.9-2.3-18.1-6.9s-6.3-11.4-6.3-20.3c0-8.5,2.4-15.3,7.2-19.9
	C1067.9,150.7,1074.9,148.1,1083.5,148.1 M1083.5,146.1c-9.3,0-16.5,2.6-21.7,7.7c-5.2,5.1-7.8,12.2-7.8,21.4
	c0,9.4,2.3,16.6,6.8,21.6s11,7.5,19.6,7.5c3.3,0,6.6-0.2,9.8-0.7c3.5-0.5,6.9-1.4,10.3-2.5v-29.4H1078v10h10.7v11.8
	c-2.5,0.5-5.1,0.8-7.6,0.8c-4.8,0-8.5-1.6-11-4.9s-3.8-7.9-3.8-14.1c0-5.9,1.6-10.6,4.7-14.1c3.1-3.5,7.3-5.2,12.5-5.3
	c4.5,0,8.9,1.1,12.9,3.1l4-9.6C1095,147.2,1089.3,146,1083.5,146.1L1083.5,146.1z"/>
<path d="M1146.5,203.5h-32.6v-56.6h32.6v9.8h-20.6v12.4h19.2v9.9h-19.2v14.6h20.6V203.5z"/>
<linearGradient id="SVGID_9_" gradientUnits="userSpaceOnUse" x1="1130.2" y1="-21.1" x2="1130.2" y2="35.5" gradientTransform="matrix(1 0 0 1 0 168)">
	<stop  offset="0" style="stop-color:#DF9A2B"/>
	<stop  offset="0.25" style="stop-color:#E9B946"/>
	<stop  offset="0.53" style="stop-color:#F5FB76"/>
	<stop  offset="0.84" style="stop-color:#9E660C"/>
	<stop  offset="1" style="stop-color:#55280B"/>
</linearGradient>
<path class="st9" d="M1144.5,148.9v5.8h-20.6v16.4h19.2v5.9h-19.2v18.6h20.6v5.9h-28.6v-52.6H1144.5 M1146.5,146.9h-32.6v56.6h32.6
	v-9.9h-20.6V179h19.2v-9.8h-19.2v-12.5h20.6V146.9L1146.5,146.9z"/>
<path class="st0" d="M599.3,239.6H696c0.7,0,1.5,0,2.2,0c2.1,0.1,3.8-1.6,3.9-3.6v-0.1c0-2.1-1.5-3.6-4-3.6c-2.8-0.1-5.6-0.2-8.5,0
	c-1.9,0.1-2.2-0.6-2.2-2.3c0.1-10.4,0-20.8,0-31.2c0-3.2-1.2-4.4-4.4-4.4c-2.3,0-4.5,0-6.8,0c-5.3,0-5.3,0-5.3-5.3
	c0-1.7,0.5-2.1,2.2-2.1c8.1,0.1,16.1,0,24.2,0c3,0,4.7-1.3,4.7-3.6s-1.6-3.8-4.8-3.8c-7,0-14,0-21,0c-5.2,0-5.1,0-5.2-5.1
	c0-1.8,0.4-2.3,2.3-2.3c7.7,0.1,15.5,0,23.2,0c3.8,0,5.6-1.2,5.6-3.8s-1.8-3.7-5.7-3.7H502.3c-0.8,0-1.6,0-2.4,0.1
	c-1.7,0.1-3,1.4-3.2,3.1c-0.4,2.5,1.3,4.3,4.2,4.3c7.3,0,14.5,0,21.8,0c5,0,4.9,0,5,4.9c0,1.9-0.4,2.6-2.5,2.6c-8-0.1-16-0.1-23.9,0
	c-3,0-4.6,1.4-4.6,3.7s1.7,3.6,4.7,3.6h21c5.4,0,5.4,0,5.3,5.5c0,1.7-0.6,2-2.1,1.9c-3.1-0.1-6.3,0-9.4,0c-3.8,0-4.9,1.1-4.9,4.9
	c0,10.1-0.1,20.1,0,30.2c0,2.1-0.3,3-2.7,2.8c-2.8-0.2-5.6-0.2-8.5,0c-1.9,0-3.5,1.5-3.5,3.5v0.1c0,1.9,1.5,3.6,3.4,3.7
	c0.8,0,1.6,0,2.4,0L599.3,239.6z M643.3,132.5c0,2.6,0,5.2,0,7.7c0,3.4,1.3,4.8,4.8,4.9c3,0.1,6,0,9,0c2.1,0,4.8-0.9,6.1,0.4
	c1.3,1.3,0.5,4.1,0.5,6.3c0.1,5.9,0,5.9,6,5.6c1.2-0.1,1.7-0.4,1.7-1.7c-0.1-2.7,0.1-5.5,0-8.2c-0.1-2,0.6-2.5,2.5-2.4
	c4.4,0.1,8.7,0.1,13.1,0c3.1,0,4.8-1.4,4.8-4.2c0.1-5.6,0.1-11.1,0-16.7c0-2.9-1.5-4.1-4.5-4.2c-3.4,0-6.8,0-10.2,0
	c-5.7,0-5.6,0-5.8-5.6c-0.1-2.5,0.5-3.5,3.1-4.1c13.7-3.3,22.2-17.6,19.1-31.6c-3.1-14-17.2-23.2-31-20.4
	C651,60.7,641.8,70.5,641,81.2c-1,13.2,5.5,23.7,17.2,28.4c1.8,0.7,4.5,0.3,5.3,2.1s0.1,4.1,0.2,6.2c0.1,1.7-0.5,2.2-2.2,2.2
	c-4.7-0.1-9.4-0.1-14,0c-2.8,0-4.1,1.4-4.1,4.2S643.4,129.7,643.3,132.5L643.3,132.5z M541.7,157.4c6,0,12.1,0,18.1,0
	c1.6,0,2.1-0.4,2.1-2c0.1-3.9,0.3-7.7,0.5-11.6c0.1-1.8-0.3-3.7-1.1-5.3c-1.4-2.7-0.7-5,1.8-7.2c1.9-1.4,4.4-1.5,6.3-0.2
	c2.5,1.9,3.3,4.5,2.2,7.2c-0.5,1.2-1.4,2.3-1.3,3.6c0.2,4.6,0.5,9.2,0.7,13.7c0,1.5,0.6,1.9,2,1.9c12,0,24,0,36,0
	c1.6,0,1.9-0.5,1.5-2c-1.3-5.2-2.5-10.3-3.6-15.5c-1.1-6-5.1-11-10.6-13.5c-4-1.9-8-3.8-11.9-5.8c-0.7-0.4-1.6-0.3-2.1,0.3
	c-10,6.7-21.9,6.7-31.8,0.1c-0.6-0.6-1.6-0.7-2.4-0.3c-3.9,2-8,3.9-11.9,5.8c-5.2,2.4-9,7.1-10.2,12.7c-1.3,5.4-2.4,10.8-3.8,16.2
	c-0.5,1.9,0.2,2.1,1.8,2.1C530,157.3,535.9,157.4,541.7,157.4L541.7,157.4z M599,254.3h97.6c0.7,0.1,1.4,0.1,2.2,0
	c1.8-0.1,3.2-1.6,3.2-3.4c0.2-1.8-1-3.4-2.7-3.8c-0.8-0.2-1.6-0.2-2.4-0.2H501.7c-3.4,0-5.1,1.3-5.1,3.7s1.7,3.7,5.1,3.7H599
	L599,254.3z M566.5,77c-11.4-0.1-20.7,9-20.8,20.3c0,0.1,0,0.3,0,0.4c0,11.5,9.3,20.8,20.8,20.8s20.8-9.3,20.8-20.8l0,0
	c0.2-11.3-8.9-20.6-20.2-20.8C566.9,77,566.7,77,566.5,77z"/>
<linearGradient id="SVGID_10_" gradientUnits="userSpaceOnUse" x1="496.5" y1="34.2" x2="702.1039" y2="34.2" gradientTransform="matrix(1 0 0 1 0 168)">
	<stop  offset="0" style="stop-color:#DF9A2B"/>
	<stop  offset="0.25" style="stop-color:#E9B946"/>
	<stop  offset="0.53" style="stop-color:#F5FB76"/>
	<stop  offset="0.84" style="stop-color:#9E660C"/>
	<stop  offset="1" style="stop-color:#55280B"/>
</linearGradient>
<path class="st10" d="M599.3,239.6h-97c-0.8,0-1.6,0.1-2.4,0c-1.9-0.2-3.4-1.8-3.4-3.7s1.5-3.5,3.4-3.6h0.1c2.8-0.2,5.6-0.2,8.5,0
	c2.4,0.2,2.7-0.7,2.7-2.8c-0.1-10.1-0.1-20.1,0-30.2c0-3.8,1-4.9,4.9-4.9c3.1,0,6.3-0.1,9.4,0c1.5,0,2.1-0.3,2.1-1.9
	c0.1-5.5,0.1-5.5-5.3-5.5h-21c-3,0-4.7-1.3-4.7-3.6s1.6-3.7,4.6-3.7c8,0,16-0.1,23.9,0c2.1,0,2.5-0.7,2.5-2.6c-0.1-4.9,0-4.9-5-4.9
	c-7.3,0-14.5,0-21.8,0c-2.9,0-4.6-1.8-4.2-4.3c0.2-1.7,1.6-3,3.2-3.1c0.8-0.1,1.6-0.1,2.4-0.1h194.2c3.9,0,5.6,1.2,5.7,3.7
	c0.1,2.5-1.7,3.8-5.6,3.8c-7.7,0-15.5,0.1-23.2,0c-1.8,0-2.3,0.5-2.3,2.3c0.1,5.1,0,5.1,5.2,5.1h21c3.2,0,4.9,1.3,4.8,3.8
	c-0.1,2.5-1.7,3.6-4.7,3.6c-8.1,0-16.1,0.1-24.2,0c-1.7,0-2.2,0.4-2.2,2.1c0,5.3,0,5.3,5.3,5.3c2.3,0,4.5,0,6.8,0
	c3.2,0.1,4.4,1.2,4.4,4.4c0,10.4,0,20.8,0,31.2c0,1.7,0.3,2.4,2.2,2.3c2.8-0.2,5.6-0.1,8.5,0c2.5,0.1,3.9,1.4,4,3.6
	c0,2.1-1.7,3.8-3.8,3.8h-0.1c-0.7,0-1.5,0-2.2,0L599.3,239.6z M599.3,194.3h59.5c4.9,0,4.8,0,5-4.8c0.1-2.1-0.5-2.6-2.6-2.6
	c-40.4,0.1-80.8,0.1-121.1,0.1c-5,0-4.9,0-5.1,4.9c-0.1,2,0.5,2.5,2.5,2.5C558.1,194.2,578.7,194.3,599.3,194.3z M599.4,172.2h-59.7
	c-4.8,0-4.7,0-4.8,4.7c-0.1,2.2,0.6,2.7,2.8,2.7c40.3-0.1,80.6-0.1,120.9-0.1c5.2,0,5.1,0,5.2-5.1c0-1.9-0.5-2.4-2.4-2.4
	C640.8,172.2,620.1,172.1,599.4,172.2L599.4,172.2z M601.2,208.4c0.7,0.4,1.2,1.1,1.4,1.9c0.4,1.1,1,2,2.3,1.5
	c1-0.4,1.6-1.5,1.3-2.5c-0.3-2-1.6-3.6-3.4-4.4c-0.8-0.4-1.7-0.5-1.7-1.7c-0.1-0.8-0.8-1.3-1.6-1.2c-0.9,0-1.6,0.4-1.7,1.4
	c0,0.8-0.5,1-1.1,1.4c-5.1,2.9-5.3,8.4-0.5,11.7c0.7,0.5,1.6,0.7,1.5,1.9c-0.1,2.2,0,4.4,0,6.8c-1.3-0.4-2.4-1.5-2.8-2.8
	c-0.4-1.1-1.1-1.9-2.4-1.4s-1.7,1.6-1.3,2.9c0.7,2.2,2.3,4,4.5,4.8c1,0.4,2,0.6,2.2,2.1c0.1,1.3,2.6,1.6,2.8,0.5
	c0.4-2.2,2.2-2.2,3.5-3.1c1.4-0.9,2.4-2.2,2.9-3.8c1.2-3.7-0.1-6.7-4-9.1c-0.7-0.5-2-0.5-1.9-1.9
	C601.3,211.9,601.2,210.3,601.2,208.4L601.2,208.4z"/>
<linearGradient id="SVGID_11_" gradientUnits="userSpaceOnUse" x1="640.7914" y1="-60.365" x2="694.0259" y2="-60.365" gradientTransform="matrix(1 0 0 1 0 168)">
	<stop  offset="0" style="stop-color:#DF9A2B"/>
	<stop  offset="0.25" style="stop-color:#E9B946"/>
	<stop  offset="0.53" style="stop-color:#F5FB76"/>
	<stop  offset="0.84" style="stop-color:#9E660C"/>
	<stop  offset="1" style="stop-color:#55280B"/>
</linearGradient>
<path class="st11" d="M643.4,132.5c0-2.7,0-5.5,0-8.2s1.4-4.2,4.1-4.2c4.7,0,9.4-0.1,14,0c1.7,0,2.3-0.4,2.2-2.2
	c-0.1-2.1,0.5-4.4-0.2-6.2s-3.5-1.4-5.3-2.1C646.4,105,640,94.4,641,81.2c0.8-10.8,10-20.5,21.5-22.9c13.8-2.9,27.9,6.4,31,20.4
	c3.1,14-5.5,28.3-19.1,31.6c-2.6,0.6-3.2,1.7-3.1,4.1c0.2,5.6,0,5.6,5.8,5.6c3.4,0,6.8,0,10.2,0c3,0,4.4,1.3,4.5,4.2
	c0.1,5.6,0.1,11.1,0,16.7c0,2.8-1.7,4.2-4.8,4.2c-4.4,0.1-8.7,0.1-13.1,0c-1.9-0.1-2.6,0.4-2.5,2.4c0.2,2.7,0,5.5,0,8.2
	c0,1.3-0.5,1.6-1.7,1.7c-5.9,0.3-5.9,0.3-6-5.6c0-2.1,1-4.9-0.5-6.3s-4-0.3-6.1-0.4c-3-0.1-6,0-9,0c-3.5-0.1-4.8-1.5-4.8-4.9
	C643.3,137.6,643.4,135.1,643.4,132.5z M669.6,76.3c0.8,0.4,0.9,1.2,1.1,1.7c0.4,1,1,1.7,2.1,1.4c1.1-0.3,1.5-1.3,1.4-2.4
	c-0.2-1.8-1.3-3.4-3-4.1c-1.1-0.3-1.9-1.1-2.4-2.2c-0.6-1.4-2.2-1.3-2.8,0.2c-0.3,0.7-0.8,1.3-1.5,1.7c-4.5,2.6-5,8-0.8,10.9
	c1.7,0.9,2.6,2.9,2.2,4.8c-0.1,0.8,0,1.6,0,2.4s0.4,1.7-0.4,2s-1.3-0.7-1.8-1.3c-0.2-0.3-0.4-0.7-0.5-1.1c-0.5-1.2-1.3-2-2.6-1.5
	c-1.3,0.5-1.5,1.8-1,3.1c0.8,2.2,2.5,3.8,4.7,4.6c0.9,0.3,1.8,0.6,1.9,1.9c0,0.9,0.8,1.1,1.6,1.1c0.8,0,1.3-0.3,1.4-1
	c0.1-1.2,1-1.6,1.9-1.9c3-1.1,4.4-3.4,4.6-6.5c0.2-2.8-1.3-4.9-3.6-6.4C669.1,81.7,668.6,80.1,669.6,76.3z M667.6,132.4
	c0.2-1.8-0.2-3.6-1.1-5.1c-1.2-2.4-4-3.4-6.4-2.2c-0.9,0.4-1.6,1.1-2.1,1.9c-1.8,2.8-1.7,8.6,0.3,11.3c1.4,2.2,4.3,2.8,6.5,1.4
	c0.7-0.5,1.3-1.1,1.7-1.9C667.3,136.1,667.7,134.3,667.6,132.4z M673.1,137.4c1.4-2.2,3.1-3.4,4.1-5.3c1.3-2.6,0.6-5.5-1.6-6.8
	c-2.2-1.4-5.1-0.7-6.5,1.5c0,0,0,0,0,0.1c-0.6,0.9-1.2,2,0,2.8c1.3,0.9,1.8-0.2,2.3-1.1c0.3-0.9,1.3-1.5,2.3-1.1
	c0.1,0,0.2,0.1,0.3,0.1c1,0.4,1.5,1.5,1.1,2.4c-0.1,0.1-0.1,0.3-0.2,0.4c-0.3,0.6-0.7,1.3-1.2,1.8c-1.4,1.7-3,3.4-4.4,5.1
	c-1.1,1.4-0.7,2.5,1.1,2.6c2.1,0.1,4.2,0,6.3,0c0.8,0,1.5-0.3,1.5-1.2s-0.7-1.4-1.6-1.4L673.1,137.4z"/>
<linearGradient id="SVGID_12_" gradientUnits="userSpaceOnUse" x1="522.2409" y1="-29.17" x2="610.8595" y2="-29.17" gradientTransform="matrix(1 0 0 1 0 168)">
	<stop  offset="0" style="stop-color:#DF9A2B"/>
	<stop  offset="0.25" style="stop-color:#E9B946"/>
	<stop  offset="0.53" style="stop-color:#F5FB76"/>
	<stop  offset="0.84" style="stop-color:#9E660C"/>
	<stop  offset="1" style="stop-color:#55280B"/>
</linearGradient>
<path class="st12" d="M541.8,157.4c-5.9,0-11.8,0-17.6,0c-1.6,0-2.3-0.1-1.8-2.1c1.4-5.4,2.5-10.8,3.8-16.2
	c1.2-5.6,5-10.3,10.2-12.7c4-1.9,8-3.8,11.9-5.8c0.8-0.4,1.7-0.3,2.4,0.3c9.8,6.6,21.7,6.6,31.8-0.1c0.6-0.6,1.5-0.7,2.1-0.3
	c3.9,2,8,3.9,11.9,5.8c5.5,2.5,9.5,7.6,10.6,13.6c1.1,5.2,2.3,10.4,3.6,15.5c0.4,1.5,0.1,2-1.5,2c-12-0.1-24-0.1-36,0
	c-1.4,0-2-0.3-2-1.9c-0.1-4.6-0.5-9.2-0.7-13.7c0-1.3,0.9-2.4,1.3-3.6c1.1-2.7,0.3-5.3-2.2-7.2c-2-1.2-4.5-1.1-6.3,0.2
	c-2.6,2.2-3.2,4.6-1.8,7.2c0.9,1.6,1.3,3.5,1.1,5.3c-0.2,3.9-0.4,7.7-0.5,11.6c0,1.6-0.6,2-2.1,2
	C553.9,157.3,547.8,157.4,541.8,157.4z M546,150.6c0.6,0,1.3,0,1.9,0c1.8,0.1,3.4-1.3,3.5-3.1v-0.1c0.3-1.9-1-3.6-2.9-3.9
	c-0.8-0.2-1.6-0.2-2.4-0.1c-3.8,0-5.7,1.3-5.7,3.7S542.3,150.6,546,150.6z"/>
<linearGradient id="SVGID_13_" gradientUnits="userSpaceOnUse" x1="496.6" y1="82.6304" x2="702.1218" y2="82.6304" gradientTransform="matrix(1 0 0 1 0 168)">
	<stop  offset="0" style="stop-color:#DF9A2B"/>
	<stop  offset="0.25" style="stop-color:#E9B946"/>
	<stop  offset="0.53" style="stop-color:#F5FB76"/>
	<stop  offset="0.84" style="stop-color:#9E660C"/>
	<stop  offset="1" style="stop-color:#55280B"/>
</linearGradient>
<path class="st13" d="M599.1,254.3h-97.4c-3.5,0-5.1-1.2-5.1-3.7s1.8-3.7,5.1-3.7H697c0.8-0.1,1.6,0,2.4,0.2c1.7,0.4,2.9,2,2.7,3.8
	c0,1.8-1.4,3.3-3.2,3.4c-0.7,0.1-1.4,0.1-2.2,0.1h-97.6V254.3L599.1,254.3z"/>
<linearGradient id="SVGID_14_" gradientUnits="userSpaceOnUse" x1="545.7" y1="-70.2016" x2="587.3" y2="-70.2016" gradientTransform="matrix(1 0 0 1 0 168)">
	<stop  offset="0" style="stop-color:#DF9A2B"/>
	<stop  offset="0.25" style="stop-color:#E9B946"/>
	<stop  offset="0.53" style="stop-color:#F5FB76"/>
	<stop  offset="0.84" style="stop-color:#9E660C"/>
	<stop  offset="1" style="stop-color:#55280B"/>
</linearGradient>
<path class="st14" d="M566.5,77c11.3-0.2,20.6,8.9,20.8,20.2c0,0.2,0,0.4,0,0.6c0,11.5-9.3,20.8-20.8,20.8s-20.8-9.3-20.8-20.8
	C545.7,86.3,555,77,566.5,77L566.5,77z"/>
<path class="st0" d="M601.2,208.4c0,1.9,0,3.5,0,5c0,1.4,1.2,1.4,1.9,1.9c3.9,2.4,5.2,5.3,4,9.1c-0.5,1.5-1.5,2.9-2.9,3.8
	c-1.3,0.9-3.1,0.9-3.5,3.1c-0.2,1.1-2.6,0.8-2.8-0.5c-0.2-1.5-1.2-1.7-2.2-2.1c-2.1-0.8-3.8-2.6-4.5-4.8c-0.4-1.4,0-2.5,1.3-2.9
	s1.9,0.3,2.4,1.4c0.4,1.3,1.4,2.4,2.8,2.8c0-2.4-0.1-4.6,0-6.8c0.1-1.2-0.8-1.4-1.5-1.9c-4.8-3.3-4.6-8.8,0.5-11.7
	c0.6-0.3,1.1-0.6,1.1-1.4c0.1-1,0.8-1.4,1.7-1.4c0.8-0.1,1.5,0.5,1.6,1.2c0.1,1.2,1,1.3,1.7,1.7c1.8,0.8,3.1,2.4,3.4,4.4
	c0.3,1.1-0.3,2.2-1.3,2.5c-1.3,0.5-1.9-0.4-2.3-1.5C602.5,209.5,602,208.8,601.2,208.4z M601.3,225.3c1.5-0.8,2.4-1.6,2.4-3.2
	s-0.9-2.4-2.4-3V225.3z M597.7,208.8c-1.1,1.1-1.6,2.3,0,3.7V208.8z"/>
<path class="st0" d="M669.6,76.3c-1,3.8-0.5,5.4,2.3,7.2c2.3,1.5,3.8,3.5,3.6,6.4c-0.2,3-1.6,5.4-4.6,6.5c-1,0.3-1.8,0.8-1.9,1.9
	c-0.1,0.8-0.7,1-1.4,1c-0.7,0-1.5-0.2-1.6-1.1c-0.1-1.3-0.9-1.5-1.9-1.9c-2.2-0.7-3.9-2.4-4.7-4.6c-0.5-1.3-0.3-2.5,1-3
	s2.1,0.3,2.6,1.5c0.1,0.4,0.3,0.7,0.5,1.1c0.5,0.6,1,1.6,1.8,1.3s0.4-1.3,0.4-2s-0.1-1.6,0-2.4c0.3-1.9-0.5-3.8-2.2-4.8
	c-4.2-2.9-3.7-8.3,0.8-10.9c0.7-0.3,1.3-0.9,1.5-1.7c0.6-1.5,2.3-1.6,2.8-0.2c0.4,1,1.3,1.8,2.4,2.2c1.7,0.7,2.8,2.3,3,4.1
	c0.2,1.1-0.1,2.1-1.4,2.4s-1.8-0.4-2.1-1.4C670.6,77.4,670.5,76.7,669.6,76.3z M669.1,89.8c0.5,1-0.7,2.7,0.7,2.8s2.1-1.4,2.1-3
	s-0.9-2.9-2.1-2.7C668.4,87.1,669.5,88.8,669.1,89.8z M665.6,76.2c-1.3,2.2-1.3,2.5,0.2,3.9c0.5-0.6,0.2-1.2,0.2-1.8
	S666.2,76.9,665.6,76.2z"/>
<path class="st0" d="M667.6,132.4c0.2,1.9-0.2,3.7-1.1,5.4c-1.1,2.3-4,3.3-6.3,2.1c-0.8-0.4-1.4-0.9-1.9-1.7
	c-1.9-2.7-2.1-8.5-0.3-11.3c1.3-2.3,4.3-3.1,6.6-1.7c0.8,0.5,1.5,1.2,1.9,2.1C667.3,128.9,667.7,130.7,667.6,132.4z M665.1,131.9
	c-0.1-0.7-0.3-1.5-0.4-2.2c-0.3-1.2-1-2.3-2.4-2.3c-1.4,0-2.1,1-2.5,2.1c-0.3,1-0.5,2-0.4,3.1c0,3.2,1.1,5,2.9,5
	S665.1,135.6,665.1,131.9z"/>
<path class="st0" d="M673.1,137.4h3.4c0.9,0,1.6,0.3,1.6,1.4s-0.7,1.2-1.5,1.2c-2.1,0-4.2,0.1-6.3,0c-1.8-0.1-2.2-1.2-1.1-2.6
	c1.4-1.8,2.9-3.4,4.4-5.1c0.5-0.6,0.9-1.2,1.2-1.8c0.6-0.9,0.4-2.1-0.5-2.6c-0.1-0.1-0.3-0.2-0.4-0.2c-0.9-0.5-2-0.2-2.5,0.7
	c-0.1,0.1-0.1,0.2-0.1,0.3c-0.5,1-1,2.1-2.3,1.1c-1.1-0.8-0.5-1.9,0-2.8c1.3-2.2,4.2-3,6.5-1.6c0,0,0,0,0.1,0
	c2.2,1.3,2.9,4.3,1.6,6.8C676.3,134,674.5,135.3,673.1,137.4z"/>
<path class="st15" d="M546,150.6c-3.7,0-5.4-1.1-5.5-3.6c-0.1-2.5,1.9-3.7,5.7-3.7c0.8-0.1,1.6,0,2.4,0.1c1.9,0.3,3.1,2,2.9,3.9
	c0,1.8-1.5,3.3-3.4,3.2H548C547.3,150.6,546.6,150.6,546,150.6z"/>
<linearGradient id="SVGID_15_" gradientUnits="userSpaceOnUse" x1="601.3241" y1="54.2" x2="603.7043" y2="54.2" gradientTransform="matrix(1 0 0 1 0 168)">
	<stop  offset="0" style="stop-color:#DF9A2B"/>
	<stop  offset="0.25" style="stop-color:#E9B946"/>
	<stop  offset="0.53" style="stop-color:#F5FB76"/>
	<stop  offset="0.84" style="stop-color:#9E660C"/>
	<stop  offset="1" style="stop-color:#55280B"/>
</linearGradient>
<path class="st16" d="M601.3,225.3v-6.2c1.5,0.6,2.4,1.3,2.4,3S602.8,224.5,601.3,225.3z"/>
<linearGradient id="SVGID_16_" gradientUnits="userSpaceOnUse" x1="596.6542" y1="42.65" x2="597.6841" y2="42.65" gradientTransform="matrix(1 0 0 1 0 168)">
	<stop  offset="0" style="stop-color:#DF9A2B"/>
	<stop  offset="0.25" style="stop-color:#E9B946"/>
	<stop  offset="0.53" style="stop-color:#F5FB76"/>
	<stop  offset="0.84" style="stop-color:#9E660C"/>
	<stop  offset="1" style="stop-color:#55280B"/>
</linearGradient>
<path class="st17" d="M597.7,208.8v3.7C596.1,211.1,596.6,210,597.7,208.8z"/>
<linearGradient id="SVGID_17_" gradientUnits="userSpaceOnUse" x1="669.0241" y1="-78.1504" x2="671.8442" y2="-78.1504" gradientTransform="matrix(1 0 0 1 0 168)">
	<stop  offset="0" style="stop-color:#DF9A2B"/>
	<stop  offset="0.25" style="stop-color:#E9B946"/>
	<stop  offset="0.53" style="stop-color:#F5FB76"/>
	<stop  offset="0.84" style="stop-color:#9E660C"/>
	<stop  offset="1" style="stop-color:#55280B"/>
</linearGradient>
<path class="st18" d="M669.1,89.8c0.5-1-0.7-2.7,0.8-2.8c1.2-0.1,2.1,1.3,2.1,2.7s-0.8,3.1-2.1,3C668.6,92.6,669.6,90.8,669.1,89.8z
	"/>
<linearGradient id="SVGID_18_" gradientUnits="userSpaceOnUse" x1="664.6041" y1="-89.9" x2="666.0141" y2="-89.9" gradientTransform="matrix(1 0 0 1 0 168)">
	<stop  offset="0" style="stop-color:#DF9A2B"/>
	<stop  offset="0.25" style="stop-color:#E9B946"/>
	<stop  offset="0.53" style="stop-color:#F5FB76"/>
	<stop  offset="0.84" style="stop-color:#9E660C"/>
	<stop  offset="1" style="stop-color:#55280B"/>
</linearGradient>
<path class="st19" d="M665.6,76.2c0.7,0.7,0.4,1.4,0.4,2s0.2,1.3-0.2,1.8C664.3,78.7,664.3,78.4,665.6,76.2z"/>
<linearGradient id="SVGID_19_" gradientUnits="userSpaceOnUse" x1="659.2842" y1="-35.5035" x2="665.0541" y2="-35.5035" gradientTransform="matrix(1 0 0 1 0 168)">
	<stop  offset="0" style="stop-color:#DF9A2B"/>
	<stop  offset="0.25" style="stop-color:#E9B946"/>
	<stop  offset="0.53" style="stop-color:#F5FB76"/>
	<stop  offset="0.84" style="stop-color:#9E660C"/>
	<stop  offset="1" style="stop-color:#55280B"/>
</linearGradient>
<path class="st20" d="M665.1,131.9c0,3.7-1.1,5.7-2.9,5.7s-2.9-1.8-2.9-5c-0.1-1,0.1-2.1,0.4-3.1c0.5-1.2,1.1-2.2,2.5-2.1
	c1.4,0.1,2.1,1.1,2.4,2.3C664.9,130.6,665,131.6,665.1,131.9z"/>
<path class="st21" d="M229.7,331.7c-17.2,3.6-34.8-6-51.4-7.8c-17.2-1.9-36.5,3.3-51.9-3.6c-15.4-6.9-24.3-25.1-37-36.6
	c-12.7-11.5-31.3-18.3-39.9-33.3c-8.3-14.5-4.9-34.1-8.4-51.3c-3.6-17.2-14.5-33.9-12.7-50.5c1.9-17.2,16.4-31,23.3-46.5
	S59.6,66.6,71.1,54s31.2-15.3,46.2-23.9c14.5-8.3,26.8-24,44-27.6s34.8,6,51.4,7.8c17.2,1.9,36.5-3.3,51.9,3.6s24.3,25.1,37,36.6
	c12.7,11.5,31.3,18.3,39.9,33.3c8.3,14.5,4.9,34.1,8.4,51.3s14.5,33.9,12.7,50.5c-1.9,17.2-16.4,31-23.3,46.5s-7.9,35.5-19.3,48.2
	s-31.2,15.3-46.2,23.9C259.2,312.4,246.9,328.1,229.7,331.7z"/>
<path class="st21" d="M216.5,312.8c-5.9-0.9-11.9-2.3-17.6-4.1c-5.6-1.9-11.5-3.3-17.3-4.1c-6-0.4-11.8-0.2-17.8,0.6
	c-6,0.8-12.1,0.8-18.1,0.5c-3.4-0.3-7-1.2-10.1-2.5c-9-3.9-15.1-12.2-21-20.1c-3.2-4.6-7-9-11-13c-4.5-3.7-9.2-6.9-14.3-9.8
	c-8.4-5-17.2-10.2-22-18.6c-4.8-8.4-5.1-18.4-5.2-28.2c0-5.8-0.4-11.6-1.4-17.5c-1.4-5.4-3.4-10.7-5.7-15.8
	c-4-9.1-8.1-18.5-6.9-28.6c1.2-10,6.9-18.4,12.6-26.5c3.3-4.5,6.2-9.2,8.8-14.2c2.2-5.4,3.8-11,4.9-16.6c2.2-9.6,4.4-19.4,10.9-26.6
	S100.8,57.3,110,54c5.5-1.7,10.9-3.9,16-6.6c4.7-3,9.3-6.5,13.4-10.5c7.4-6.5,15-13.4,24.8-15.4c3.4-0.7,7-0.9,10.4-0.5
	c5.9,0.9,11.9,2.3,17.7,4.3c5.6,1.9,11.5,3.3,17.3,4.1c6,0.4,11.8,0.2,17.8-0.6c6-0.8,12.1-0.8,18.1-0.6c3.4,0.3,7,1.2,10.1,2.5
	c9,3.9,15.1,12.2,21,20.1c3.2,4.6,7,9,11.2,13c4.5,3.7,9.2,6.9,14.3,9.7c8.5,5.1,17.2,10.2,22,18.6c4.8,8.4,5.1,18.4,5.2,28.2
	c0,5.8,0.4,11.6,1.5,17.3c1.4,5.4,3.4,10.7,5.7,15.8c3.9,9,8.1,18.5,6.9,28.6s-6.9,18.4-12.6,26.5c-3.3,4.5-6.2,9.2-8.8,14.2
	c-2.2,5.4-3.8,11-4.9,16.7c-2.2,9.6-4.4,19.4-10.9,26.6s-16,10.5-25.4,13.8c-5.5,1.7-10.9,3.9-16,6.6c-4.7,3-9.3,6.5-13.4,10.5
	c-7.4,6.5-15,13.4-24.8,15.4C223.5,313.2,220,313.3,216.5,312.8z"/>
<path class="st22" d="M245.2,31c3.3,0.2,6.3,1.1,9.3,2.4c13.7,6,20.5,22.7,31.6,32.5c11.1,9.8,28.4,14.9,35.7,27.7
	s3.2,30.1,6.5,44.9c3,14.1,14.2,28.3,12.7,43.5s-15.3,26.9-21.2,39.9c-6,13.7-5.5,31.8-15.4,42.6c-9.8,10.9-27.9,12.5-40.7,20
	c-12.8,7.5-22.7,22.4-37.4,25.6c-3.2,0.7-6.5,0.8-9.7,0.4c-11.4-1.2-23.1-7-35-8.3c-11.9-1.3-24.6,2.2-36,1
	c-3.3-0.2-6.3-1.1-9.3-2.4c-13.7-6-20.5-22.7-31.4-32.6s-28.4-14.9-35.9-27.7c-7.5-12.8-3.2-30.1-6.3-44.8
	c-3-14.1-14.2-28.3-12.7-43.5c1.5-15.2,15.3-26.9,21.2-39.9c6-13.7,5.5-31.6,15.4-42.6s27.9-12.4,40.7-19.9s22.9-22.4,37.4-25.6
	c3.2-0.7,6.5-0.8,9.7-0.4c11.4,1.2,23.1,7,35,8.3C221.2,33.3,233.9,29.8,245.2,31z M245.7,25.8L245.7,25.8
	c-6.2-0.5-12.5-0.3-18.6,0.6c-5.8,0.7-11.5,0.9-17.2,0.5c-5.8-0.8-11.4-2.1-16.8-3.9c-5.9-2.1-11.9-3.5-18.2-4.4
	c-3.7-0.4-7.6-0.2-11.3,0.5c-10.3,2.1-18.3,9.2-25.8,15.9c-4.1,3.8-8.4,7.2-13.1,10.1c-4.9,2.6-10.1,4.8-15.6,6.5
	c-9.6,3.3-19.5,6.8-26.4,14.5S73.5,84,71.3,93.8c-1,5.5-2.6,11-4.7,16.3c-2.5,4.9-5.3,9.4-8.6,13.8c-5.9,8.3-12,17-13.1,27.8
	c-1.1,10.7,3.2,20.4,7.2,29.9c2.3,4.9,4.2,10,5.6,15.4c1,5.5,1.4,11.2,1.4,17c0.2,10.1,0.4,20.6,5.7,29.5c5.3,8.9,14.2,14.3,23,19.5
	c5,2.7,9.5,5.9,13.9,9.5c4,3.8,7.5,8.1,10.7,12.5c6.2,8.1,12.5,16.7,22,20.9c3.4,1.5,7.1,2.4,10.9,2.7c6.2,0.5,12.5,0.3,18.6-0.6
	c5.8-0.7,11.5-0.9,17.2-0.5c5.8,0.8,11.4,2.1,16.8,3.9c5.9,2.1,12,3.4,18.2,4.4c3.7,0.4,7.6,0.2,11.3-0.5
	c10.4-2.3,18.3-9.2,25.8-15.9c4.1-3.8,8.4-7.2,13.1-10.1c4.9-2.6,10.1-4.8,15.6-6.5c9.6-3.3,19.5-6.8,26.4-14.5
	c6.9-7.7,9.2-17.9,11.4-27.7c1-5.5,2.6-11,4.7-16.3c2.5-4.9,5.2-9.5,8.6-13.8c5.9-8.3,12-17,13.1-27.8c1.1-10.7-3.2-20.4-7.2-29.9
	c-2.3-4.9-4.2-10-5.6-15.2c-1-5.5-1.4-11.2-1.3-16.9c-0.2-10.1-0.4-20.6-5.7-29.5c-5.3-8.9-14.3-14.4-23-19.5
	c-5-2.7-9.5-5.9-13.9-9.5c-4-3.8-7.5-8.1-10.7-12.5c-6.2-8.1-12.5-16.7-22.2-20.9C253.2,27,249.5,26,245.7,25.8L245.7,25.8z"/>
<g class="st23">
	<path class="st22" d="M137.4,130.3l-10.2-33.6l-0.3,0c0.6,5.7,0.8,10.2,1,13.4l0.4,20.4l-11.2,0.2L116,83.9l16.8-0.3l10.6,33
		l0.2-0.1l8.8-33.4l16.8-0.3l1,46.9l-11.7,0.2l-0.4-20.6c-0.1-1,0-2.2,0-3.6c0.1-1.3,0.1-4.5,0.3-9.6l-0.3,0l-8.6,33.8L137.4,130.3z
		"/>
	<path class="st22" d="M214,110.5c0.1,6-1.4,10.6-4.6,14c-3.2,3.4-7.6,5.2-13.3,5.2c-5.5,0.1-9.9-1.4-13.2-4.8
		c-3.3-3.3-5.1-7.8-5.1-13.6c-0.2-5.9,1.4-10.6,4.5-13.9c3.2-3.4,7.5-5.1,13.3-5.2c3.6-0.1,6.7,0.6,9.5,2.1c2.8,1.4,4.9,3.5,6.4,6.4
		C213.2,103.3,213.9,106.7,214,110.5z M190.5,110.9c0,3.1,0.5,5.5,1.3,7.1c0.9,1.6,2.4,2.4,4.2,2.4c1.9,0,3.3-0.9,4-2.5
		c0.7-1.6,1.1-4.1,1.1-7.2c0-3.1-0.5-5.5-1.3-7.1c-0.9-1.6-2.2-2.3-4.2-2.4c-1.9,0-3.2,0.8-4.1,2.5
		C190.8,105.5,190.5,107.9,190.5,110.9z"/>
	<path class="st22" d="M249.4,116.7c0,3.9-1.1,6.8-3.7,8.9c-2.6,2.1-6.5,3.1-11.3,3.2c-2.7,0-5.1,0-7-0.3c-2-0.2-4.1-0.8-6.2-1.5
		l-0.2-10c2,0.9,4.1,1.5,6.5,2c2.3,0.5,4.4,0.7,6.2,0.7c2.7,0,4.1-0.8,4.1-2c0-0.7-0.3-1.2-1.1-1.7c-0.8-0.5-2.9-1.5-6.6-2.7
		c-3.4-1.3-5.7-2.8-7.1-4.4c-1.3-1.7-2-3.9-2.1-6.5c0-3.4,1.1-6,3.8-7.9c2.6-1.9,6.2-2.9,11-3c2.4,0,4.7,0.2,6.7,0.6
		c2,0.4,4.3,1.2,6.5,2.2l-3.2,8.1c-1.7-0.7-3.5-1.4-5.3-1.8s-3.5-0.7-4.6-0.7c-2.1,0.1-3.1,0.5-3.1,1.6c0,0.7,0.3,1.2,1.2,1.5
		c0.7,0.5,2.9,1.2,6.2,2.5c2.6,1,4.4,1.9,5.7,3c1.2,1.1,2.1,2.1,2.9,3.5C249.3,113.3,249.4,114.8,249.4,116.7z"/>
	<path class="st22" d="M274.3,118.2c1.7-0.1,3.6-0.5,6.1-1.4l0.3,9.1c-1.7,0.8-3.3,1.3-4.8,1.6c-1.5,0.4-3.3,0.6-5.3,0.6
		c-4.3,0-7.2-0.9-9.1-2.9c-1.9-2-2.9-5.2-3-9.5l-0.3-14.9l-4.5,0.1l-0.1-5.2l5.5-4.1l3-7.7l8-0.1l0.2,7.3l8.9-0.2l0.1,9.4l-8.9,0.2
		l0.3,14.1C270.8,117.1,271.9,118.2,274.3,118.2z"/>
</g>
<g class="st23">
	<path class="st22" d="M109.7,175c0.1,5.2-1.3,9.3-4.3,12.2s-7.4,4.4-13,4.5l-3.6,0.1l0.3,15.6l-12.7,0.2l-1-46.9l16.2-0.4
		c5.9-0.2,10.4,1.1,13.4,3.6C108,166.6,109.5,170.2,109.7,175z M88.4,181.6l2.2,0c1.9,0,3.3-0.6,4.5-1.8c1.1-1,1.6-2.5,1.6-4.4
		c0-3.1-1.9-4.7-5.3-4.5l-3.3,0.1L88.4,181.6z"/>
	<path class="st22" d="M151.3,187.9c0.1,6-1.4,10.6-4.6,14c-3.2,3.4-7.6,5.2-13.3,5.2c-5.5,0.1-9.9-1.4-13.2-4.8
		c-3.3-3.3-5.1-7.8-5.1-13.6c-0.2-5.9,1.4-10.6,4.5-13.9c3.2-3.4,7.5-5.1,13.3-5.2c3.6-0.1,6.7,0.6,9.5,2.1c2.8,1.4,4.9,3.5,6.4,6.4
		C150.5,180.8,151.3,184.2,151.3,187.9z M127.8,188.4c0,3.1,0.5,5.5,1.3,7.1s2.4,2.4,4.2,2.4c1.9,0,3.3-0.9,4-2.5
		c0.7-1.7,1.1-4.1,1.1-7.2c0-3.1-0.5-5.5-1.3-7.1c-0.9-1.6-2.2-2.3-4.2-2.4c-1.9,0-3.2,0.8-4.1,2.5
		C128.2,182.9,127.8,185.3,127.8,188.4z"/>
	<path class="st22" d="M180.6,206.2c-1.9,0-3.5-0.2-4.9-0.8c-1.4-0.6-2.9-1.6-4.4-3.1l-0.6,0.1c0.4,2.6,0.6,4,0.7,4.7l0.3,14.6
		l-12.6,0.3l-1.1-52l10.1-0.2l1.9,4.6l0.6-0.1c2.3-3.6,5.4-5.3,9.6-5.5c4-0.1,7.2,1.4,9.5,4.8c2.3,3.2,3.6,7.8,3.7,13.7
		c0.2,5.9-1,10.5-3.3,13.9C187.9,204.2,184.8,206.1,180.6,206.2z M175.9,178.4c-1.9,0-3,0.7-3.8,2.1c-0.8,1.4-1.1,3.3-1,5.9l0.1,1
		c0,3.1,0.6,5.3,1.3,6.7c0.9,1.4,2.2,2,4,2.1c1.5,0,2.7-0.7,3.5-2.1c0.8-1.4,1.1-3.6,1-6.9c0-3.1-0.6-5.3-1.2-6.6
		C178.8,179.2,177.6,178.4,175.9,178.4z"/>
	<path class="st22" d="M226.9,204.6l-1.6-4.5l-0.7,0c-1.1,1.7-2.5,3-4.3,3.9c-1.9,0.9-4,1.5-6.6,1.4c-4,0.1-7-1-9.5-3.3
		c-2.2-2.3-3.4-5.6-3.6-9.7l-0.5-23.7l12.6-0.3l0.3,19.9c0,2.4,0.4,4.1,1.1,5.4c0.7,1.2,1.8,1.8,3.3,1.8c2.2,0,3.7-1,4.5-2.6
		c0.9-1.7,1.3-4.5,1.2-8.7l-0.3-16l12.6-0.3l0.8,36.3L226.9,204.6z"/>
	<path class="st22" d="M257.6,203.8l-12.6,0.3l-1.1-49.8l12.6-0.3L257.6,203.8z"/>
	<path class="st22" d="M290,203.2l-2.5-4.8l-0.3,0c-1.6,2.2-3.3,3.7-5.1,4.4c-1.8,0.7-4,1.3-6.7,1.3c-3.4,0-6.1-0.9-8.1-2.9
		c-2-2.1-3-4.9-3.1-8.5c0-3.9,1.3-6.8,3.8-8.7c2.7-1.9,6.5-3.1,11.7-3.4l6.1-0.2l0-0.5c-0.1-2.9-1.6-4.5-4.6-4.4
		c-2.6,0.1-6,0.9-10.1,2.9l-3.8-8.1c4.2-2.2,9.5-3.5,16-3.6c4.7-0.2,8.2,1,10.9,3.2c2.6,2.3,3.9,5.5,4,9.6l0.5,23.9L290,203.2z
		 M280.6,195.1c1.5,0,2.8-0.5,3.9-1.5s1.5-2.2,1.5-3.8l-0.1-2.8l-2.8,0.1c-4.2,0.2-6.2,1.7-6.1,4.7
		C276.9,194.2,278.1,195.3,280.6,195.1z"/>
	<path class="st22" d="M328.3,165.4c1-0.1,2.2,0.1,3.2,0.2l0.6,0.1l-0.9,11.9c-1.1-0.3-2.4-0.4-4.3-0.3c-2.7,0-4.7,0.7-6,2
		c-1.3,1.3-1.9,3.1-1.7,5.4l0.4,17.9l-12.6,0.3l-0.8-36.3l9.3-0.2l2.1,5.8l0.7,0c1-1.9,2.4-3.5,4.3-4.8
		C324.5,166.2,326.4,165.4,328.3,165.4z"/>
</g>
</svg>
