<?xml version="1.0" encoding="utf-8"?>
<!-- Generator: Adobe Illustrator 24.2.3, SVG Export Plug-In . SVG Version: 6.00 Build 0)  -->
<svg version="1.1" id="Layer_1" xmlns="http://www.w3.org/2000/svg" xmlns:xlink="http://www.w3.org/1999/xlink" x="0px" y="0px"
	 viewBox="0 0 1093.5 480.6" style="enable-background:new 0 0 1093.5 480.6;" xml:space="preserve">
<style type="text/css">
	.st0{fill:#F01010;}
	.st1{fill:#FFFFFF;}
	.st2{enable-background:new    ;}
	.st3{fill-rule:evenodd;clip-rule:evenodd;fill:#F01010;}
	.st4{fill-rule:evenodd;clip-rule:evenodd;fill:#FFFFFF;}
</style>
<path class="st0" d="M307,473.5c-24.5,5.1-49.6-8.5-73.2-11.1c-24.5-2.7-52,4.7-73.9-5.1s-34.6-35.7-52.6-52
	c-18.1-16.4-44.6-26-56.9-47.3c-11.8-20.7-6.9-48.6-12-73.1S17.9,236.6,20.4,213c2.7-24.5,23.4-44.1,33.2-66.2S64.9,96,81.2,78.2
	s44.4-21.8,65.7-34.1c20.7-11.8,38.2-34.2,62.7-39.3s49.6,8.5,73.2,11.1c24.5,2.7,52-4.7,73.9,5.1c21.9,9.8,34.6,35.7,52.6,52
	c18.1,16.4,44.6,26,56.9,47.3c11.8,20.7,6.9,48.6,12,73.1c5.1,24.5,20.6,48.2,18.1,71.8c-2.7,24.5-23.4,44.1-33.2,66.2
	c-9.9,22.1-11.2,50.6-27.5,68.7s-44.4,21.8-65.7,34.1C349,446,331.5,468.4,307,473.5z"/>
<path class="st0" d="M288.2,446.6c-8.4-1.3-17-3.3-25.1-5.8c-8-2.8-16.4-4.7-24.6-5.9c-8.5-0.6-16.8-0.3-25.3,0.8
	c-8.5,1.1-17.2,1.2-25.7,0.6c-4.9-0.4-9.9-1.7-14.4-3.6c-12.8-5.6-21.5-17.4-29.9-28.6c-4.6-6.6-9.9-12.8-15.7-18.5
	c-6.4-5.2-13.1-9.9-20.3-14c-11.9-7.1-24.4-14.5-31.3-26.5c-6.9-12-7.2-26.2-7.5-40.1c0-8.3-0.6-16.5-2-24.9
	c-2-7.7-4.8-15.2-8.1-22.4c-5.7-12.9-11.5-26.3-9.9-40.7c1.6-14.3,9.8-26.3,17.9-37.7c4.7-6.4,8.9-13.1,12.5-20.2
	c3.1-7.6,5.4-15.6,6.9-23.6c3.1-13.7,6.2-27.6,15.5-37.8s22.3-15,35.5-19.7c7.8-2.4,15.5-5.6,22.8-9.4c6.7-4.3,13.2-9.2,19.1-14.9
	c10.6-9.2,21.4-19,35.2-21.9c4.8-1,10-1.2,14.9-0.8c8.4,1.3,17,3.3,25.2,6.1c8,2.8,16.4,4.7,24.6,5.9c8.5,0.6,16.8,0.3,25.3-0.8
	c8.5-1.1,17.2-1.2,25.8-0.9c4.9,0.4,9.9,1.7,14.4,3.6c12.8,5.6,21.5,17.4,29.9,28.6c4.6,6.6,9.9,12.8,15.9,18.6
	c6.4,5.2,13.1,9.9,20.4,13.7c12.1,7.2,24.4,14.5,31.3,26.5c6.9,12,7.2,26.2,7.5,40.1c0,8.3,0.6,16.5,2.1,24.7
	c2,7.7,4.8,15.2,8.1,22.4c5.5,12.8,11.5,26.3,9.9,40.7c-1.6,14.3-9.8,26.3-17.9,37.7c-4.7,6.4-8.9,13.1-12.5,20.2
	c-3.1,7.6-5.4,15.6-7,23.8c-3.1,13.7-6.2,27.6-15.5,37.8c-9.3,10.2-22.8,15-36.2,19.6c-7.8,2.4-15.5,5.6-22.8,9.4
	c-6.7,4.3-13.2,9.2-19.1,14.9c-10.6,9.2-21.4,19-35.2,21.9C298.1,447.1,293.2,447.3,288.2,446.6z"/>
<path class="st1" d="M329,45.3c4.7,0.4,9,1.5,13.3,3.4c19.5,8.5,29.2,32.4,45,46.3s40.4,21.3,50.9,39.4s4.5,42.9,9.2,63.9
	c4.3,20.1,20.2,40.3,18.1,61.9c-2.2,21.6-21.8,38.2-30.1,56.9c-8.5,19.5-7.9,45.3-21.9,60.7c-14,15.4-39.7,17.8-58,28.5
	c-18.2,10.7-32.3,31.9-53.2,36.4c-4.5,0.9-9.2,1.1-13.8,0.5c-16.2-1.7-32.9-10-49.8-11.8c-16.9-1.8-35,3.1-51.2,1.4
	c-4.7-0.4-9-1.5-13.3-3.4c-19.5-8.5-29.2-32.4-44.7-46.4c-15.4-14-40.4-21.3-51.1-39.5c-10.7-18.2-4.5-42.9-9-63.8
	c-4.3-20.1-20.2-40.3-18.1-61.9c2.2-21.6,21.8-38.2,30.1-56.9c8.5-19.5,7.8-45.1,21.9-60.7s39.7-17.6,57.9-28.3s32.5-31.8,53.2-36.4
	c4.5-0.9,9.2-1.1,13.8-0.5c16.2,1.7,32.9,10,49.8,11.8S313,43.7,329,45.3z M329.8,37.9L329.8,37.9c-8.9-0.7-17.7-0.5-26.5,0.8
	c-8.2,1-16.3,1.4-24.5,0.7c-8.2-1.2-16.2-2.9-24-5.6c-8.4-2.9-17-5-25.9-6.2c-5.3-0.6-10.8-0.3-16.1,0.7
	c-14.7,3.1-26.1,13.1-36.8,22.7c-5.8,5.5-12,10.3-18.6,14.4c-7,3.7-14.4,6.8-22.2,9.2c-13.7,4.7-27.7,9.7-37.6,20.7
	s-13.1,25.5-16.2,39.4c-1.5,7.8-3.7,15.6-6.7,23.2c-3.5,6.9-7.6,13.4-12.2,19.6c-8.3,11.9-17.1,24.3-18.7,39.6
	c-1.6,15.3,4.5,29.1,10.3,42.5c3.2,7,5.9,14.2,7.9,21.9c1.4,7.9,2,15.9,2.1,24.2c0.3,14.4,0.5,29.3,8.1,42
	c7.5,12.7,20.2,20.4,32.7,27.8c7.1,3.8,13.6,8.3,19.8,13.5c5.7,5.4,10.7,11.5,15.2,17.8c8.8,11.6,17.7,23.7,31.4,29.7
	c4.9,2.1,10.1,3.4,15.5,3.9c8.9,0.7,17.7,0.5,26.5-0.8c8.2-1,16.3-1.4,24.5-0.7c8.2,1.2,16.2,2.9,24,5.6c8.4,2.9,17.1,4.8,25.9,6.2
	c5.3,0.6,10.8,0.3,16.1-0.7c14.7-3.3,26.1-13.1,36.8-22.7c5.8-5.5,12-10.3,18.6-14.4c7-3.7,14.4-6.8,22.2-9.2
	C395,399,409,394,418.9,383c9.9-11,13.1-25.5,16.2-39.4c1.5-7.8,3.7-15.6,6.7-23.2c3.5-6.9,7.3-13.5,12.2-19.6
	c8.3-11.9,17.1-24.3,18.7-39.6s-4.5-29.1-10.3-42.5c-3.2-7-5.9-14.2-8-21.7c-1.4-7.9-2-15.9-1.9-24.1c-0.3-14.4-0.5-29.3-8.1-42
	s-20.4-20.5-32.7-27.8c-7.1-3.8-13.6-8.3-19.8-13.5c-5.7-5.4-10.7-11.5-15.2-17.8C368.1,60.2,359.1,48,345.3,42
	C340.5,39.7,335.2,38.3,329.8,37.9L329.8,37.9z"/>
<g class="st2">
	<path class="st1" d="M175.7,186.8L161.1,139l-0.5,0c0.8,8.1,1.2,14.6,1.4,19l0.6,29.1l-15.9,0.3l-1.6-66.8l23.9-0.5l15.1,47
		l0.3-0.1l12.5-47.6l23.9-0.5l1.4,66.7l-16.6,0.3l-0.5-29.3c-0.1-1.5-0.1-3.2,0-5.1c0.1-1.9,0.2-6.5,0.4-13.6l-0.5,0l-12.3,48.2
		L175.7,186.8z"/>
	<path class="st1" d="M284.7,158.5c0.1,8.5-2,15.1-6.5,19.9c-4.5,4.8-10.7,7.4-19,7.5c-7.8,0.2-14.1-2-18.8-6.8
		c-4.7-4.7-7.2-11.2-7.3-19.4c-0.2-8.3,2-15.1,6.4-19.7c4.5-4.8,10.7-7.2,19-7.5c5.2-0.2,9.6,0.8,13.5,3c4,2,7,5,9.1,9.1
		C283.5,148.3,284.6,153.2,284.7,158.5z M251.2,159.2c0,4.4,0.7,7.8,1.9,10c1.2,2.2,3.4,3.4,6,3.4c2.7,0,4.7-1.3,5.7-3.6
		c1-2.2,1.6-5.9,1.6-10.2c0-4.4-0.7-7.8-1.9-10c-1.2-2.2-3.2-3.3-6-3.4c-2.7,0-4.6,1.1-5.9,3.5C251.7,151.4,251.1,154.8,251.2,159.2
		z"/>
	<path class="st1" d="M335,167.4c0,5.6-1.6,9.7-5.3,12.7c-3.7,3-9.2,4.5-16.1,4.6c-3.9,0-7.3,0-10-0.5c-2.8-0.3-5.8-1.1-8.8-2.1
		l-0.3-14.2c2.8,1.2,5.9,2.1,9.2,2.8c3.3,0.7,6.3,1.1,8.8,0.9c3.9,0,5.8-1.1,5.8-2.8c-0.1-1-0.5-1.7-1.6-2.4
		c-1.1-0.7-4.2-2.1-9.5-3.9c-4.8-1.8-8.2-4-10.1-6.3c-1.8-2.5-2.9-5.6-3-9.3c-0.1-4.9,1.5-8.5,5.4-11.2c3.6-2.8,8.8-4.1,15.7-4.3
		c3.4,0,6.7,0.2,9.6,0.8c2.9,0.5,6.1,1.7,9.3,3.1l-4.6,11.6c-2.4-1.1-5-1.9-7.6-2.6c-2.6-0.7-4.9-0.9-6.6-0.9
		c-3,0.2-4.4,0.7-4.4,2.2c0.1,1,0.5,1.7,1.7,2.2c0.9,0.6,4.1,1.8,8.8,3.6c3.8,1.4,6.3,2.8,8.1,4.3c1.8,1.5,3,3,4.1,5
		C335,162.6,335,164.7,335,167.4z"/>
	<path class="st1" d="M370.5,169.5c2.5-0.1,5.1-0.7,8.6-2l0.4,13c-2.4,1.1-4.7,1.8-6.8,2.3c-2.2,0.5-4.7,0.8-7.6,0.8
		c-6.1,0-10.3-1.4-12.9-4.2c-2.6-2.8-4.1-7.3-4.3-13.5l-0.4-21.3l-6.4,0.1l-0.2-7.3l7.9-5.8l4.3-11l11.4-0.1l0.3,10.3l12.7-0.3
		l0.2,13.4l-12.7,0.3l0.5,20.1C365.6,167.9,367.1,169.5,370.5,169.5z"/>
</g>
<g class="st2">
	<path class="st1" d="M136.1,250.4c0.2,7.3-1.9,13.2-6.1,17.4s-10.5,6.3-18.6,6.4l-5.2,0.2l0.5,22.2L88.6,297l-1.4-66.7l23-0.6
		c8.3-0.2,14.8,1.6,19.1,5.2C133.8,238.5,136,243.6,136.1,250.4z M105.9,259.8l3.2-0.1c2.7,0,4.7-0.8,6.4-2.5
		c1.6-1.5,2.3-3.6,2.3-6.3c0-4.4-2.6-6.7-7.6-6.5l-4.7,0.1L105.9,259.8z"/>
	<path class="st1" d="M195.4,268.8c0.1,8.5-2,15.1-6.5,19.9c-4.5,4.8-10.7,7.4-19,7.5c-7.8,0.2-14.1-2-18.8-6.8
		c-4.7-4.7-7.2-11.2-7.3-19.4c-0.2-8.3,2-15.1,6.4-19.7c4.5-4.8,10.7-7.2,19-7.5c5.2-0.2,9.6,0.8,13.5,3c4,2,7,5,9.1,9.1
		C194.3,258.6,195.4,263.4,195.4,268.8z M162,269.4c0,4.4,0.7,7.8,1.9,10c1.2,2.2,3.4,3.4,6,3.4s4.7-1.3,5.7-3.6
		c1.1-2.4,1.6-5.9,1.6-10.2c0-4.4-0.7-7.8-1.9-10c-1.2-2.2-3.2-3.3-6-3.4c-2.7,0-4.6,1.1-5.9,3.5C162.5,261.7,161.9,265.1,162,269.4
		z"/>
	<path class="st1" d="M237.2,294.8c-2.7,0-5-0.2-7-1.1c-2-0.9-4.1-2.3-6.3-4.4l-0.8,0.1c0.6,3.6,0.9,5.7,0.9,6.7l0.4,20.8l-17.9,0.4
		l-1.6-74.1l14.4-0.3l2.7,6.5l0.8-0.1c3.2-5.1,7.7-7.6,13.6-7.9c5.7-0.2,10.2,2,13.5,6.9c3.3,4.6,5.1,11.2,5.3,19.5
		c0.2,8.3-1.4,14.9-4.7,19.7C247.6,292,243,294.6,237.2,294.8z M230.4,255.2c-2.7,0-4.3,1-5.4,3s-1.5,4.7-1.5,8.3l0.1,1.5
		c0,4.4,0.8,7.6,1.9,9.5c1.3,2,3.1,2.8,5.7,3c2.2,0,3.8-1,4.9-2.9c1.1-1.9,1.5-5.2,1.4-9.8c0-4.4-0.8-7.6-1.7-9.5
		C234.6,256.3,232.8,255.3,230.4,255.2z"/>
	<path class="st1" d="M303.1,292.5l-2.3-6.3l-1,0.1c-1.6,2.5-3.6,4.3-6.1,5.6c-2.7,1.2-5.8,2.1-9.3,2c-5.7,0.2-10-1.5-13.5-4.7
		c-3.2-3.3-4.8-7.9-5.1-13.9l-0.8-33.8l17.9-0.4l0.5,28.3c0,3.4,0.6,5.8,1.5,7.7c1,1.6,2.5,2.6,4.7,2.5c3.2-0.1,5.2-1.4,6.5-3.7
		c1.3-2.4,1.8-6.5,1.7-12.3l-0.5-22.7l17.9-0.4l1.2,51.6L303.1,292.5z"/>
	<path class="st1" d="M346.7,291.4l-17.9,0.4l-1.5-70.9l17.9-0.4L346.7,291.4z"/>
	<path class="st1" d="M392.9,290.5l-3.5-6.9l-0.5,0c-2.3,3.1-4.7,5.2-7.3,6.3c-2.6,1-5.7,1.9-9.5,1.9c-4.9,0.1-8.6-1.3-11.5-4.1
		c-2.8-2.9-4.2-6.9-4.4-12.1c0-5.6,1.8-9.6,5.4-12.4c3.8-2.7,9.2-4.5,16.7-4.8l8.6-0.4l0.1-0.7c-0.1-4.2-2.3-6.3-6.5-6.2
		c-3.7,0.1-8.6,1.3-14.4,4.1l-5.4-11.6c6-3.2,13.6-5,22.8-5.1c6.6-0.2,11.7,1.5,15.5,4.6c3.7,3.3,5.6,7.8,5.7,13.6l0.7,34
		L392.9,290.5z M379.4,279.1c2.2,0,3.9-0.7,5.6-2.2c1.6-1.5,2.1-3.2,2.1-5.4l-0.2-4l-4,0.2c-6,0.3-8.8,2.4-8.7,6.6
		C374.2,277.7,376,279.2,379.4,279.1z"/>
	<path class="st1" d="M447.3,236.7c1.5-0.1,3.1,0.1,4.5,0.3l0.9,0.2l-1.3,16.9c-1.5-0.4-3.4-0.5-6.1-0.5c-3.9,0-6.7,0.9-8.5,2.8
		c-1.8,1.9-2.7,4.4-2.4,7.7l0.5,25.4l-17.9,0.4l-1.2-51.6l13.2-0.3l2.9,8.3l1-0.1c1.4-2.8,3.4-5.1,6.1-6.8
		C442,237.8,444.7,236.8,447.3,236.7z"/>
</g>
<g id="surface1">
	<path class="st3" d="M794.6,5.9c130.4,0,236.1,105.6,236.1,236S925,478.1,794.6,478.1s-236-105.7-236-236.1S664.2,5.9,794.6,5.9z"
		/>
	<path class="st4" d="M780.2,159.9h-20.4c-3.3-0.4-7.4-0.4-11.5-0.7c-1.1,0.4-1.5,1.5-1.9,3c-0.3,1.3-0.1,2.7,0.8,3.7l4.4,0.4
		c4.2,0.7,8.3,1.8,12.2,3.3c2.7,1.6,4.6,4.3,5.2,7.4c0.9,4.4,1.1,8.9,0.7,13.3c-0.4,7.8-0.8,17-1.1,27.8
		c-0.4,10.7-1.1,21.8-1.9,33.3c-0.7,17.8-2.3,61-7.1,73.8c-0.9,2.6-2.8,4.7-5.2,6c-2.9,1.3-6.1,2.2-9.3,2.6l-5.9,0.7
		c-1.1,0.7-1.5,1.9-1.1,3.7c0,1.3,0.5,2.5,1.5,3.3c4.8-0.4,9.3-0.7,14.1-1.1h29.4c5.6,0.4,10.4,0.8,14.8,1.1c1.2-0.7,1.9-2,1.9-3.3
		c0.1-1.4-0.5-2.8-1.5-3.7l-10.4-0.7c-3.4-0.4-5.9-1.1-7.8-2.6c-1-0.8-1.7-1.9-2.2-3c-2.2-5.3-2.2-14.2-2.1-19.7
		c0.2-11.5,0.4-22.9,0.7-34.4s0.7-21.5,1.1-30c0.4-7.8,1.1-15.9,1.5-24.1c0.4-8.2,0.7-16.3,1.1-24.4h0.7c3,6.3,5.9,12.6,8.5,19.6
		c3,6.7,5.9,13.3,8.9,19.6l24.8,52.8c2.2,4.5,4.8,10,7.8,16.7c3.3,7,6.7,13.7,9.6,20.4c1.6,3.5,2.9,6.8,4.1,9.9
		c0.3,0,2.4,6.8,2.6,7.6c1.4,1.4,3.8,1.4,5.2,0c2.3-5.5,4.7-11.1,7.4-16.4c7-15.7,14.3-30.8,22.6-45.9l24.1-47.8
		c1.9-4.1,3.7-8.5,6.3-13.3c2.6-5.2,5.2-10,7.4-14.1c1.1-2.9,2.5-5.8,4.1-8.5h0.4l0.8,114.4c0.3,4.6,0.2,9.1-0.4,13.7
		c-0.3,2.6-1,5.2-3.6,6.5c-1.5,1.9-4.5,2.6-9.3,3l-8.2,0.7c-0.7,0.7-1.1,1.9-0.7,3.7c0,1.3,0.5,2.5,1.5,3.3l17-1.1h31.9
		c5.6,0.4,11.1,0.8,16.7,1.1c1.1-0.8,1.6-2,1.5-3.3c0.3-1.3,0.1-2.6-0.7-3.7l-8.9-0.7c-4.1-0.4-7-1.5-8.9-3.4c-2-1.8-3.3-4.3-3.7-7
		c-0.5-3.9-0.7-7.9-0.8-11.9c-0.8-13.8-1.3-27.8-1.6-41.6c-0.4-14.8-1.1-28.9-1.5-42.2v-35.3c-0.1-5,0.3-9.9,1.1-14.8
		c0.7-3.3,2.5-6.1,5.2-8.1c2.6-1.5,7-2.6,13-3.3l5.6-0.4c0.7-0.8,1.1-1.9,0.7-3.7c0-1.1-0.4-2.2-1.1-3c-4.4,0.4-8.9,0.4-13,0.7h-20
		c-3.3-0.4-7-0.4-11.8-0.7c-0.4,6.3-2.6,13.3-5.9,21.5c-4.1,8.5-8.9,18.9-14.8,31.1l-25.9,52.2c-6.7,14.2-12.8,27.7-21.1,41.2h-0.7
		c-6.5-12.4-12.6-25.2-18.5-37.9l-31.5-62.9c-4.1-8.9-7.8-17.4-10.7-25.2c-2.6-7.8-3.7-14.4-3.3-20
		C788.4,159.6,784.3,159.6,780.2,159.9z M628.3,300.6c0.1,7.2-0.2,14.4-1.1,21.5c-0.8,9.5-7,12.6-15.9,13.3l-5.7,0.8
		c-1.8,1.8-1.7,5.8,0.4,7.2c11.7-0.7,22.3-1.1,34-1.1c12.5,0,24.2,0.5,36.7,1.1c0.8-1,1.3-2.1,1.5-3.4c0-1.9-0.4-3-1.1-3.8l-7.6-0.8
		c-6.1-0.4-10.2-1.5-12.5-3.4c-0.1-0.1-0.3-0.2-0.4-0.3c-2.3-1.9-3.9-4.8-4.6-9.3c-0.9-7.1-1.2-14.3-0.8-21.5v-26.4
		c-7.6,0.4-15.2,0-22.7-1.1L628.3,300.6z M604.1,162.8c-0.4,1.5,0.4,2.6,1.5,3.8l9.8,1.1c4.2,0.4,7.2,1.5,9.1,3.4
		c1.9,1.5,3,4.1,3.4,8.3s0.8,10.2,0.8,18.1v55.8c7.5,0.4,15.1,0.4,22.7,0v-77c-0.4-2.4-0.1-4.9,0.8-7.2c0.4-1.1,1.9-2.3,3.8-2.6
		c3.7-0.4,7.3-0.5,11-0.4c14.3,0.4,25.3,4.1,33.2,12.1c7.6,7.9,11.3,18.9,11.3,32.5c0.4,12.1-2.6,22.2-9.1,30.5
		c-5.7,7.2-14,12.5-25.3,15.1c-10.9,2.6-26.4,3.8-47.2,3.4c-18.1-0.4-37.7-1.5-59.2-3.8c23.8,4.9,41.5,8.3,52.8,9.4
		c17.8,2.2,35.8,2,53.6-0.8c8.1-1.1,16.1-3.1,23.8-6c7.3-3.4,14.2-7.4,20.7-12c4.1-3,7.9-7.9,11.3-14.3c2.6-6,4.1-13.2,4.5-21.9
		c-0.2-8.7-2.5-17.3-6.8-24.9c-4.2-7.2-9.1-12.8-15.5-17c-7.3-4.1-15.2-7.1-23.4-8.7c-10.1-1.6-20.3-2.4-30.6-2.3
		c-11.3,0-21.5,0-30.6,0.4c-9.1,0.4-17.4,0.8-24.5,1.5C604.8,160.1,604.1,161.4,604.1,162.8z"/>
</g>
</svg>
